<?xml version="1.0" encoding="utf-8"?>
<!-- Generator: Adobe Illustrator 15.0.0, SVG Export Plug-In  -->
<!DOCTYPE svg PUBLIC "-//W3C//DTD SVG 1.1//EN" "http://www.w3.org/Graphics/SVG/1.1/DTD/svg11.dtd" [
	<!ENTITY ns_flows "http://ns.adobe.com/Flows/1.0/">
]>
<svg version="1.1"
	 xmlns="http://www.w3.org/2000/svg" xmlns:xlink="http://www.w3.org/1999/xlink" xmlns:a="http://ns.adobe.com/AdobeSVGViewerExtensions/3.0/"
	 x="0px" y="0px" width="186px" height="186px" viewBox="-0.999 -1.043 186 186" enable-background="new -0.999 -1.043 186 186"
	 xml:space="preserve">
<defs>
</defs>
<g>
	<defs>
		<rect id="SVGID_1_" width="184" height="183.998"/>
	</defs>
	<clipPath id="SVGID_2_">
		<use xlink:href="#SVGID_1_"  overflow="visible"/>
	</clipPath>
	<path clip-path="url(#SVGID_2_)" fill="#1BA892" d="M92,183.998c50.808,0,92-41.191,92-92C184,41.188,142.808,0,92,0
		C41.191,0,0,41.188,0,91.998C0,142.806,41.191,183.998,92,183.998"/>
</g>
<path fill="#FFFFFF" d="M143.519,99.521c0,1.246-0.968,2.221-2.218,2.221h-6.671v28.893c0,3.684-2.991,6.676-6.669,6.676H52.375
	c-3.682,0-6.67-2.992-6.67-6.676v-28.893h-6.667c-1.253,0-2.225-0.975-2.225-2.221v-22.24c0-1.245,0.972-2.218,2.225-2.218h30.563
	c-8.612,0-15.56-6.947-15.56-15.565c0-8.608,6.947-15.558,15.56-15.558c4.659,0,8.967,1.943,11.673,5.346l8.893,11.467l8.896-11.467
	c2.71-3.403,7.014-5.346,11.672-5.346c8.613,0,15.559,6.949,15.559,15.558c0,8.618-6.945,15.565-15.559,15.565h30.567
	c1.25,0,2.218,0.974,2.218,2.218V99.521z M83.153,66.17l-8.754-11.18c-0.767-0.902-2.436-2.158-4.798-2.158
	c-3.681,0-6.666,2.988-6.666,6.665c0,3.686,2.985,6.672,6.666,6.672H83.153z M101.279,120.912v-32.51V75.063H79.051v13.339v32.51
	v3.887c0,2.434,2.017,3.617,4.448,3.617h13.337c2.435,0,4.443-1.184,4.443-3.617V120.912z M110.733,52.833
	c-2.36,0-4.034,1.255-4.8,2.158l-8.681,11.18h13.48c3.678,0,6.67-2.986,6.67-6.672C117.403,55.821,114.411,52.833,110.733,52.833z"
	/>
</svg>
