<?xml version="1.0" encoding="utf-8"?>
<!-- Generator: Adobe Illustrator 15.0.0, SVG Export Plug-In  -->
<!DOCTYPE svg PUBLIC "-//W3C//DTD SVG 1.1//EN" "http://www.w3.org/Graphics/SVG/1.1/DTD/svg11.dtd" [
	<!ENTITY ns_flows "http://ns.adobe.com/Flows/1.0/">
]>
<svg version="1.1"
	 xmlns="http://www.w3.org/2000/svg" xmlns:xlink="http://www.w3.org/1999/xlink" xmlns:a="http://ns.adobe.com/AdobeSVGViewerExtensions/3.0/"
	 x="0px" y="0px" width="186px" height="186px" viewBox="-0.96 -1 186 186" enable-background="new -0.96 -1 186 186"
	 xml:space="preserve">
<defs>
</defs>
<g>
	<defs>
		<rect id="SVGID_1_" width="184" height="183.999"/>
	</defs>
	<clipPath id="SVGID_2_">
		<use xlink:href="#SVGID_1_"  overflow="visible"/>
	</clipPath>
	<path clip-path="url(#SVGID_2_)" fill="#1BA892" d="M92.205,183.999c50.809,0,92-41.191,92-92.001
		c0-50.811-41.191-91.998-92-91.998c-50.811,0-92,41.188-92,91.998C0.205,142.808,41.394,183.999,92.205,183.999"/>
</g>
<path fill="#FFFFFF" d="M145.382,94.316c0.421,1.55,0.631,3.244,0.631,4.866c0,3.51-0.914,7.042-2.674,10.133
	c0.14,0.986,0.21,2.043,0.21,3.028c0,4.507-1.479,9.014-4.224,12.535c0.14,13.315-8.947,21.127-21.976,21.127h-2.53h-6.55
	c-10,0-19.295-2.956-28.591-6.199c-2.038-0.698-7.746-2.813-9.717-2.813H49.68c-5,0-9.014-4.015-9.014-9.014V82.91
	c0-4.998,4.014-9.013,9.014-9.013h19.295c2.746-1.826,7.536-8.171,9.651-10.912c2.391-3.101,4.855-6.129,7.535-9.015
	c4.219-4.507,1.971-15.634,9.013-22.533c1.684-1.624,3.942-2.608,6.333-2.608c7.325,0,14.364,2.608,17.818,9.433
	c2.182,4.303,2.464,8.377,2.464,13.102c0,4.927-1.268,9.158-3.383,13.52h12.396c9.718,0,18.027,8.243,18.027,17.956
	C148.831,86.925,147.635,90.938,145.382,94.316z M54.188,118.965c-2.463,0-4.507,2.044-4.507,4.507c0,2.464,2.044,4.509,4.507,4.509
	c2.463,0,4.507-2.045,4.507-4.509C58.694,121.009,56.65,118.965,54.188,118.965z M130.804,73.896h-24.788
	c0-8.242,6.761-14.229,6.761-22.533c0-8.233-1.617-13.521-11.269-13.521c-4.505,4.578-2.186,15.347-9.013,22.533
	c-1.971,2.043-3.665,4.23-5.42,6.407C83.902,70.869,75.525,82.91,69.961,82.91h-2.253v45.071h2.253
	c3.942,0,10.419,2.534,14.224,3.869c7.745,2.679,15.774,5.145,24.084,5.145h8.521c7.956,0,13.521-3.174,13.521-11.756
	c0-1.345-0.139-2.679-0.353-3.953c2.955-1.612,4.577-5.626,4.577-8.87c0-1.693-0.421-3.377-1.268-4.854
	c2.397-2.26,3.731-5.072,3.731-8.378c0-2.258-0.985-5.564-2.464-7.258c3.311-0.072,5.283-6.406,5.283-9.015
	C139.818,78.116,135.522,73.896,130.804,73.896z"/>
</svg>
