<?xml version="1.0" encoding="utf-8"?>
<!-- Generator: Adobe Illustrator 15.0.0, SVG Export Plug-In . SVG Version: 6.00 Build 0)  -->
<!DOCTYPE svg PUBLIC "-//W3C//DTD SVG 1.1//EN" "http://www.w3.org/Graphics/SVG/1.1/DTD/svg11.dtd">
<svg version="1.1" id="Capa_1" xmlns="http://www.w3.org/2000/svg" xmlns:xlink="http://www.w3.org/1999/xlink" x="0px" y="0px"
	 width="186px" height="186px" viewBox="0 0 186 186" enable-background="new 0 0 186 186" xml:space="preserve">
<g>
	<g>
		<g>
			<defs>
				<rect id="SVGID_1_" x="1" y="1.001" width="184" height="183.998"/>
			</defs>
			<clipPath id="SVGID_2_">
				<use xlink:href="#SVGID_1_"  overflow="visible"/>
			</clipPath>
			<path clip-path="url(#SVGID_2_)" fill="#1BA892" d="M93,184.999c50.809,0,92-41.19,92-92c0-50.811-41.191-91.998-92-91.998
				c-50.81,0-92,41.187-92,91.998C1,143.809,42.19,184.999,93,184.999"/>
		</g>
	</g>
</g>
<g enable-background="new    ">
	<path fill="#FFFFFF" d="M118.754,104.387c-4.014,3.943-8.579,8.025-13.491,12.177l-1.384,26.221
		c-0.069,0.691-0.484,1.384-1.107,1.799L76.206,160.08c-0.346,0.207-0.692,0.276-1.107,0.276c-0.554,0-1.107-0.208-1.591-0.623
		l-4.428-4.428c-0.553-0.622-0.761-1.452-0.553-2.214l5.88-19.094l-19.44-19.441l-19.095,5.881
		c-0.208,0.069-0.415,0.069-0.623,0.069c-0.554,0-1.176-0.208-1.591-0.623l-4.428-4.428c-0.692-0.761-0.83-1.867-0.346-2.698
		l15.497-26.566c0.415-0.623,1.107-1.038,1.799-1.107l26.22-1.384c4.151-4.912,8.233-9.478,12.176-13.491
		c17.296-17.227,30.509-22.761,54.585-22.761c1.246,0,2.353,0.969,2.353,2.214C141.515,72.632,135.15,87.921,118.754,104.387z
		 M119.376,62.946c-3.667,0-6.642,2.975-6.642,6.642s2.975,6.642,6.642,6.642s6.642-2.975,6.642-6.642
		S123.043,62.946,119.376,62.946z"/>
</g>
</svg>
