<?xml version="1.0" encoding="utf-8"?>
<!-- Generator: Adobe Illustrator 22.0.1, SVG Export Plug-In . SVG Version: 6.00 Build 0)  -->
<svg version="1.1" id="Capa_1" xmlns="http://www.w3.org/2000/svg" xmlns:xlink="http://www.w3.org/1999/xlink" x="0px" y="0px"
	 viewBox="0 0 806.9 368.9" style="enable-background:new 0 0 806.9 368.9;" xml:space="preserve">
<style type="text/css">
	.st0{fill:#DFE2E5;}
	.st1{fill:#FFFFFF;}
	.st2{fill:#7F8FA4;}
	.st3{fill:none;stroke:#7F8FA4;stroke-width:2;stroke-miterlimit:10;}
	.st4{fill-rule:evenodd;clip-rule:evenodd;fill:#FFFFFF;}
	.st5{fill:none;stroke:#7F8FA4;stroke-width:2;stroke-linecap:round;stroke-miterlimit:10;}
	.st6{fill:none;stroke:#7F8FA4;stroke-width:2;stroke-linecap:round;stroke-linejoin:round;stroke-miterlimit:10;}
	
		.st7{fill:none;stroke:#7F8FA4;stroke-width:2;stroke-linecap:round;stroke-linejoin:round;stroke-miterlimit:10;stroke-dasharray:6;}
	.st8{fill-rule:evenodd;clip-rule:evenodd;fill:#7F8FA4;}
	.st9{fill:#FFFFFF;stroke:#7F8FA4;stroke-width:2;stroke-linecap:round;stroke-miterlimit:10;}
</style>
<g>
	<path class="st0" d="M757.6,217.9H644.5c-17,0-30.8-13.8-30.8-30.8c0-17,13.8-30.8,30.8-30.8h61.7c17,0,30.8-13.8,30.8-30.8
		c0-17-13.8-30.8-30.8-30.8H536.6v61.7v61.7v61.7h221c17,0,30.8-13.8,30.8-30.8C788.4,231.7,774.6,217.9,757.6,217.9z"/>
</g>
<g>
	<path class="st0" d="M77.4,45.5c-16.3,0-29.5,13.2-29.5,29.5c0,16.3,13.2,29.5,29.5,29.5H138c16.3,0,29.5,13.2,29.5,29.5
		c0,16.3-13.2,29.5-29.5,29.5H47.9c-16.3,0-29.5,13.2-29.5,29.5c0,16.3,13.2,29.5,29.5,29.5H197v-59v-59v-59H77.4z"/>
</g>
<g>
	<path class="st1" d="M179.7,281.7c-1.1,0-2-0.9-2-2V37.2c0-1.1,0.9-2,2-2h425.8c1.1,0,2,0.9,2,2v242.5c0,1.1-0.9,2-2,2H179.7z"/>
	<g>
		<path class="st2" d="M605.5,36.1c0.6,0,1,0.5,1,1v242.5c0,0.6-0.5,1-1,1H179.7c-0.6,0-1-0.5-1-1V37.2c0-0.6,0.5-1,1-1H605.5
			 M605.5,34.1H179.7c-1.7,0-3,1.3-3,3v242.5c0,1.7,1.3,3,3,3h425.8c1.7,0,3-1.3,3-3V37.2C608.5,35.5,607.2,34.1,605.5,34.1
			L605.5,34.1z"/>
	</g>
</g>
<g>
	<rect x="334.6" y="281.7" class="st0" width="116" height="44.6"/>
	<g>
		<path class="st2" d="M449.7,282.7v42.6h-114v-42.6H449.7 M451.7,280.7h-118v46.6h118V280.7L451.7,280.7z"/>
	</g>
</g>
<g>
	<line class="st3" x1="273" y1="326.3" x2="512.2" y2="326.3"/>
	<line class="st4" x1="273" y1="326.3" x2="512.2" y2="326.3"/>
</g>
<g>
	<line class="st5" x1="213.8" y1="251.6" x2="575.5" y2="251.6"/>
	<line class="st5" x1="213.8" y1="251.6" x2="213.8" y2="61.2"/>
</g>
<g>
	<rect x="265.7" y="157.4" class="st0" width="44" height="93.2"/>
</g>
<g>
	<rect x="338.2" y="213.2" class="st0" width="44" height="37.4"/>
</g>
<g>
	<rect x="410.7" y="174.6" class="st0" width="44" height="75.9"/>
</g>
<g>
	<rect x="483.2" y="111.3" class="st0" width="44" height="139.2"/>
</g>
<polyline class="st6" points="286.1,140.6 360.2,196.4 432.7,157.9 505.2,94.6 "/>
<line class="st7" x1="505.2" y1="94.6" x2="562.7" y2="73.5"/>
<g>
	<path class="st0" d="M679.7,351.6H490.8c-1.7,0-3-1.3-3-3v-106c0-1.7,1.3-3,3-3h188.8c1.7,0,3,1.3,3,3v106
		C682.7,350.3,681.3,351.6,679.7,351.6z"/>
</g>
<g>
	<path class="st1" d="M476.7,336.6c-1.1,0-2-0.9-2-2v-106c0-1.1,0.9-2,2-2h188.8c1.1,0,2,0.9,2,2v106c0,1.1-0.9,2-2,2H476.7z"/>
	<path class="st2" d="M665.6,227.6c0.5,0,1,0.4,1,1v106c0,0.5-0.4,1-1,1H476.7c-0.5,0-1-0.4-1-1v-106c0-0.5,0.4-1,1-1H665.6
		 M665.6,225.6H476.7c-1.7,0-3,1.3-3,3v106c0,1.7,1.3,3,3,3h188.8c1.7,0,3-1.3,3-3v-106C668.6,227,667.2,225.6,665.6,225.6
		L665.6,225.6z"/>
</g>
<g>
	<line class="st3" x1="475" y1="244.4" x2="667.3" y2="244.4"/>
</g>
<g>
	<circle class="st2" cx="486" cy="235.9" r="3.7"/>
</g>
<g>
	<circle class="st0" cx="497" cy="235.9" r="3.7"/>
</g>
<g>
	<circle class="st0" cx="508.1" cy="235.9" r="3.7"/>
</g>
<g>
	<path class="st1" d="M570.5,321.9c-17.7,0-32.1-14.4-32.1-32.1s14.4-32.1,32.1-32.1c17.7,0,32.1,14.4,32.1,32.1
		S588.2,321.9,570.5,321.9z"/>
	<path class="st2" d="M570.5,258.7c17.1,0,31.1,13.9,31.1,31.1s-13.9,31.1-31.1,31.1s-31.1-13.9-31.1-31.1S553.4,258.7,570.5,258.7
		 M570.5,256.7c-18.3,0-33.1,14.8-33.1,33.1s14.8,33.1,33.1,33.1s33.1-14.8,33.1-33.1S588.8,256.7,570.5,256.7L570.5,256.7z"/>
</g>
<g>
	<g>
		<line class="st5" x1="570.5" y1="297.7" x2="570.5" y2="273.2"/>
	</g>
	<circle class="st8" cx="570.5" cy="305.1" r="1.2"/>
</g>
<g>
	<circle class="st2" cx="646" cy="219.1" r="1.5"/>
	<circle class="st2" cx="651" cy="219.1" r="1.5"/>
	<circle class="st2" cx="656" cy="219.1" r="1.5"/>
	<circle class="st2" cx="661" cy="219.1" r="1.5"/>
	<circle class="st2" cx="646" cy="214.1" r="1.5"/>
	<circle class="st2" cx="651" cy="214.1" r="1.5"/>
	<circle class="st2" cx="656" cy="214.1" r="1.5"/>
	<circle class="st2" cx="661" cy="214.1" r="1.5"/>
</g>
<g>
	<circle class="st2" cx="150.7" cy="109.8" r="1.5"/>
	<circle class="st2" cx="155.7" cy="109.8" r="1.5"/>
	<circle class="st2" cx="160.7" cy="109.8" r="1.5"/>
	<circle class="st2" cx="165.7" cy="109.8" r="1.5"/>
	<circle class="st2" cx="150.7" cy="104.8" r="1.5"/>
	<circle class="st2" cx="155.7" cy="104.8" r="1.5"/>
	<circle class="st2" cx="160.7" cy="104.8" r="1.5"/>
	<circle class="st2" cx="165.7" cy="104.8" r="1.5"/>
</g>
<g>
	<line class="st9" x1="641.7" y1="34.5" x2="641.7" y2="43.8"/>
	<line class="st9" x1="641.7" y1="13.3" x2="641.7" y2="22.6"/>
	<line class="st9" x1="635" y1="29.2" x2="625.7" y2="29.2"/>
	<line class="st9" x1="657.6" y1="29.2" x2="648.3" y2="29.2"/>
</g>
<g>
	<line class="st9" x1="154.2" y1="300.7" x2="154.2" y2="305.4"/>
	<line class="st9" x1="154.2" y1="290.1" x2="154.2" y2="294.7"/>
	<line class="st9" x1="150.9" y1="298.1" x2="146.3" y2="298.1"/>
	<line class="st9" x1="162.2" y1="298.1" x2="157.6" y2="298.1"/>
</g>
</svg>
