<?xml version="1.0" encoding="utf-8"?>
<!-- Generator: Adobe Illustrator 15.0.0, SVG Export Plug-In  -->
<!DOCTYPE svg PUBLIC "-//W3C//DTD SVG 1.1//EN" "http://www.w3.org/Graphics/SVG/1.1/DTD/svg11.dtd" [
	<!ENTITY ns_flows "http://ns.adobe.com/Flows/1.0/">
]>
<svg version="1.1"
	 xmlns="http://www.w3.org/2000/svg" xmlns:xlink="http://www.w3.org/1999/xlink" xmlns:a="http://ns.adobe.com/AdobeSVGViewerExtensions/3.0/"
	 x="0px" y="0px" width="186px" height="186px" viewBox="-1 -1.001 186 186" enable-background="new -1 -1.001 186 186"
	 xml:space="preserve">
<defs>
</defs>
<g>
	<defs>
		<rect id="SVGID_1_" width="184" height="183.999"/>
	</defs>
	<clipPath id="SVGID_2_">
		<use xlink:href="#SVGID_1_"  overflow="visible"/>
	</clipPath>
	<path clip-path="url(#SVGID_2_)" fill="#5973B5" d="M92,183.999c50.81,0,92-41.19,92-92.001C184,41.186,142.81,0,92,0
		S0,41.186,0,91.998C0,142.809,41.19,183.999,92,183.999"/>
	<path clip-path="url(#SVGID_2_)" fill="#FFFFFF" d="M146.941,127.445c0,3.249-2.639,5.887-5.885,5.887h-19.624
		c-3.25,0-5.886-2.638-5.886-5.887v-19.619c0-3.249,2.636-5.887,5.886-5.887h5.885V90.165H95.923v11.774h5.887
		c3.251,0,5.887,2.638,5.887,5.887v19.619c0,3.249-2.636,5.887-5.887,5.887H82.19c-3.249,0-5.887-2.638-5.887-5.887v-19.619
		c0-3.249,2.638-5.887,5.887-5.887h5.887V90.165H56.682v11.774h5.887c3.249,0,5.885,2.638,5.885,5.887v19.619
		c0,3.249-2.636,5.887-5.885,5.887H42.946c-3.249,0-5.887-2.638-5.887-5.887v-19.619c0-3.249,2.638-5.887,5.887-5.887h5.886V90.165
		c0-4.29,3.554-7.848,7.85-7.848h31.395V70.544H82.19c-3.249,0-5.887-2.638-5.887-5.887V45.036c0-3.249,2.638-5.886,5.887-5.886
		h19.619c3.251,0,5.887,2.638,5.887,5.886v19.622c0,3.249-2.636,5.887-5.887,5.887h-5.887v11.773h31.395
		c4.298,0,7.851,3.558,7.851,7.848v11.774h5.889c3.246,0,5.885,2.638,5.885,5.887V127.445z"/>
</g>
</svg>
