<?xml version="1.0" encoding="utf-8"?>
<!-- Generator: Adobe Illustrator 15.0.0, SVG Export Plug-In  -->
<!DOCTYPE svg PUBLIC "-//W3C//DTD SVG 1.1//EN" "http://www.w3.org/Graphics/SVG/1.1/DTD/svg11.dtd" [
	<!ENTITY ns_flows "http://ns.adobe.com/Flows/1.0/">
]>
<svg version="1.1"
	 xmlns="http://www.w3.org/2000/svg" xmlns:xlink="http://www.w3.org/1999/xlink" xmlns:a="http://ns.adobe.com/AdobeSVGViewerExtensions/3.0/"
	 x="0px" y="0px" width="186px" height="186px" viewBox="-1 -1 186 186" enable-background="new -1 -1 186 186"
	 xml:space="preserve">
<defs>
</defs>
<g>
	<defs>
		<rect id="SVGID_1_" width="184" height="183.998"/>
	</defs>
	<clipPath id="SVGID_2_">
		<use xlink:href="#SVGID_1_"  overflow="visible"/>
	</clipPath>
	<path clip-path="url(#SVGID_2_)" fill="#78AB2B" d="M92,183.998c50.81,0,92-41.189,92-92C184,41.187,142.81,0,92,0
		S0,41.187,0,91.998C0,142.809,41.19,183.998,92,183.998"/>
	<path clip-path="url(#SVGID_2_)" fill="#FFFFFF" d="M113.895,54.407c-2.347,0-4.009,1.24-4.771,2.138l-8.64,11.131h13.41
		c3.663,0,6.634-2.973,6.634-6.639C120.528,57.378,117.558,54.407,113.895,54.407 M104.495,122.125V89.787V76.52h-22.11v13.267
		v32.338v3.865c0,2.42,2.005,3.598,4.421,3.598h13.269c2.418,0,4.421-1.178,4.421-3.598V122.125z M86.464,67.676l-8.711-11.131
		c-0.759-0.898-2.419-2.138-4.768-2.138c-3.661,0-6.632,2.971-6.632,6.63c0,3.666,2.971,6.639,6.632,6.639H86.464z M146.507,100.838
		c0,1.25-0.966,2.215-2.21,2.215h-6.634v28.742c0,3.666-2.972,6.637-6.635,6.637H55.849c-3.661,0-6.632-2.971-6.632-6.637v-28.742
		h-6.632c-1.245,0-2.211-0.965-2.211-2.215v-22.11c0-1.24,0.966-2.208,2.211-2.208h30.401c-8.566,0-15.478-6.91-15.478-15.482
		c0-8.564,6.912-15.474,15.478-15.474c4.635,0,8.914,1.936,11.611,5.319l8.843,11.402l8.845-11.402
		c2.695-3.383,6.975-5.319,11.61-5.319c8.565,0,15.478,6.91,15.478,15.474c0,8.572-6.912,15.482-15.478,15.482h30.402
		c1.244,0,2.21,0.968,2.21,2.208V100.838z"/>
</g>
</svg>
