<?xml version="1.0" encoding="utf-8"?>
<!-- Generator: Adobe Illustrator 15.0.0, SVG Export Plug-In  -->
<!DOCTYPE svg PUBLIC "-//W3C//DTD SVG 1.1//EN" "http://www.w3.org/Graphics/SVG/1.1/DTD/svg11.dtd" [
	<!ENTITY ns_flows "http://ns.adobe.com/Flows/1.0/">
]>
<svg version="1.1"
	 xmlns="http://www.w3.org/2000/svg" xmlns:xlink="http://www.w3.org/1999/xlink" xmlns:a="http://ns.adobe.com/AdobeSVGViewerExtensions/3.0/"
	 x="0px" y="0px" width="186px" height="186px" viewBox="-1 -1.001 186 186" enable-background="new -1 -1.001 186 186"
	 xml:space="preserve">
<defs>
</defs>
<g>
	<defs>
		<rect id="SVGID_1_" width="184" height="183.999"/>
	</defs>
	<clipPath id="SVGID_2_">
		<use xlink:href="#SVGID_1_"  overflow="visible"/>
	</clipPath>
	<path clip-path="url(#SVGID_2_)" fill="#5973B5" d="M92,183.999c50.812,0,92.002-41.19,92.002-92.001
		C184.002,41.186,142.812,0,92,0C41.19,0,0,41.186,0,91.998C0,142.809,41.19,183.999,92,183.999"/>
	<path clip-path="url(#SVGID_2_)" fill="#FFFFFF" d="M62.974,119.321c-2.084,0-3.81,1.729-3.81,3.813
		c0,2.082,1.726,3.808,3.81,3.808s3.81-1.726,3.81-3.808C66.784,121.051,65.058,119.321,62.974,119.321 M89.642,56.466
		c0-1.013-0.892-1.91-1.908-1.91H38.206c-1.008,0-1.9,0.896-1.9,1.91v57.147c0,1.008,0.893,1.9,1.9,1.9h49.528
		c1.016,0,1.908-0.893,1.908-1.9V56.466z M97.262,121.233c0,5.232-4.286,9.521-9.528,9.521H38.206c-5.238,0-9.521-4.288-9.521-9.521
		V56.466c0-5.24,4.282-9.528,9.521-9.528h49.528c5.242,0,9.528,4.288,9.528,9.528V121.233z"/>
	<path clip-path="url(#SVGID_2_)" fill="#FFFFFF" d="M75.784,90.859c0,1.037-0.837,1.874-1.875,1.874
		c-1.017,0-1.856-0.837-1.856-1.874v-7.824c0-1.038,0.839-1.856,1.856-1.856c1.038,0,1.875,0.819,1.875,1.856V90.859z
		 M67.503,77.121c0-0.381-0.309-0.71-0.69-0.71c-0.401,0-0.712,0.329-0.712,0.71c0,0.383,0.311,0.708,0.712,0.708
		C67.194,77.829,67.503,77.503,67.503,77.121 M59.846,77.121c0-0.381-0.311-0.71-0.712-0.71c-0.381,0-0.69,0.329-0.69,0.71
		c0,0.383,0.31,0.708,0.69,0.708C59.535,77.829,59.846,77.503,59.846,77.121 M71.326,93.642c0,1.11-0.891,2.003-1.983,2.003h-1.363
		v4.133c0,1.035-0.839,1.872-1.878,1.872c-1.038,0-1.873-0.837-1.873-1.872v-4.133h-2.511v4.133c0,1.035-0.837,1.872-1.873,1.872
		c-1.021,0-1.856-0.837-1.856-1.872l-0.021-4.133h-1.345c-1.111,0-2.001-0.893-2.001-2.003V81.523h16.704V93.642z M71.381,80.867
		H54.548c0-2.892,1.728-5.403,4.296-6.712l-1.293-2.384c-0.072-0.129-0.036-0.293,0.093-0.367c0.125-0.052,0.29-0.016,0.363,0.113
		l1.309,2.4c1.108-0.492,2.346-0.764,3.659-0.764c1.309,0,2.546,0.272,3.655,0.764l1.311-2.4c0.071-0.129,0.236-0.165,0.361-0.113
		c0.129,0.073,0.165,0.238,0.093,0.367l-1.293,2.384C69.651,75.464,71.381,77.976,71.381,80.867 M53.894,83.035v7.824
		c0,1.037-0.817,1.874-1.856,1.874c-1.037,0-1.874-0.837-1.874-1.874v-7.824c0-1.02,0.837-1.856,1.874-1.856
		C53.055,81.179,53.894,82.016,53.894,83.035"/>
	<path clip-path="url(#SVGID_2_)" fill="#FFFFFF" d="M135.695,84.729c-0.2,0.501-0.512,0.962-0.933,1.384
		c-0.36,0.361-0.722,0.601-1.082,0.722c-0.23,0.072-0.571,0.129-1.044,0.171c0.021-0.994,0.282-1.856,0.781-2.581
		c0.504-0.718,1.345-1.212,2.508-1.481c0.02,0.089,0.043,0.161,0.051,0.218c0,0.071,0.011,0.131,0.011,0.202
		C135.987,83.777,135.888,84.237,135.695,84.729 M138.525,97.636c-0.862,1.316-1.728,1.967-2.58,1.967
		c-0.337,0-0.802-0.11-1.4-0.321c-0.593-0.222-1.104-0.321-1.518-0.321c-0.398,0-0.882,0.111-1.424,0.334
		c-0.549,0.229-0.993,0.341-1.322,0.341c-1.032,0-2.027-0.873-3.02-2.599c-0.972-1.726-1.476-3.402-1.476-5.046
		c0-1.533,0.381-2.779,1.135-3.75c0.75-0.964,1.696-1.446,2.849-1.446c0.491,0,1.072,0.103,1.772,0.301
		c0.694,0.201,1.154,0.302,1.387,0.302c0.289,0,0.771-0.111,1.434-0.341c0.663-0.22,1.246-0.341,1.737-0.341
		c0.802,0,1.514,0.22,2.135,0.652c0.349,0.242,0.702,0.581,1.043,1.003c-0.52,0.44-0.902,0.831-1.143,1.184
		c-0.433,0.621-0.654,1.311-0.654,2.075c0,0.823,0.234,1.575,0.694,2.237c0.46,0.663,0.991,1.084,1.582,1.263
		C139.508,95.922,139.108,96.763,138.525,97.636"/>
	<path clip-path="url(#SVGID_2_)" fill="#FFFFFF" d="M132.771,117.925c-2.715,0-4.935,2.218-4.935,4.935
		c0,2.718,2.22,4.935,4.935,4.935c2.708,0,4.927-2.217,4.927-4.935C137.698,120.143,135.479,117.925,132.771,117.925
		 M137.698,59.717h-9.861c-0.555,0-0.989,0.43-0.989,0.99c0,0.557,0.435,0.99,0.989,0.99h9.861c0.56,0,0.99-0.433,0.99-0.99
		C138.688,60.147,138.258,59.717,137.698,59.717 M150.527,69.588c0-1.051-0.927-1.978-1.968-1.978h-31.571
		c-1.053,0-1.979,0.926-1.979,1.978v43.411c0,1.043,0.927,1.967,1.979,1.967h31.571c1.041,0,1.968-0.924,1.968-1.967V69.588z
		 M156.451,122.859c0,4.316-3.58,7.895-7.892,7.895h-31.571c-4.323,0-7.894-3.578-7.894-7.895V59.717
		c0-4.316,3.57-7.894,7.894-7.894h31.571c4.312,0,7.892,3.578,7.892,7.894V122.859z"/>
</g>
</svg>
