<?xml version="1.0" encoding="utf-8"?>
<!-- Generator: Adobe Illustrator 15.0.0, SVG Export Plug-In  -->
<!DOCTYPE svg PUBLIC "-//W3C//DTD SVG 1.1//EN" "http://www.w3.org/Graphics/SVG/1.1/DTD/svg11.dtd" [
	<!ENTITY ns_flows "http://ns.adobe.com/Flows/1.0/">
]>
<svg version="1.1"
	 xmlns="http://www.w3.org/2000/svg" xmlns:xlink="http://www.w3.org/1999/xlink" xmlns:a="http://ns.adobe.com/AdobeSVGViewerExtensions/3.0/"
	 x="0px" y="0px" width="186px" height="186px" viewBox="-1 -1.001 186 186" enable-background="new -1 -1.001 186 186"
	 xml:space="preserve">
<defs>
</defs>
<g>
	<defs>
		<rect id="SVGID_1_" width="184" height="183.999"/>
	</defs>
	<clipPath id="SVGID_2_">
		<use xlink:href="#SVGID_1_"  overflow="visible"/>
	</clipPath>
	<path clip-path="url(#SVGID_2_)" fill="#5973B5" d="M92,183.999c50.81,0,92-41.19,92-92.001C184,41.186,142.81,0,92,0
		S0,41.186,0,91.998C0,142.809,41.19,183.999,92,183.999"/>
	<path clip-path="url(#SVGID_2_)" fill="#FFFFFF" d="M130.364,112.951H114.67v15.692h15.694V112.951z M130.364,92.027H114.67v17.437
		h15.694V92.027z M130.364,72.84H114.67v15.701h15.694V72.84z M116.413,46.686c0-0.93-0.819-1.748-1.743-1.748h-3.487
		c-0.924,0-1.745,0.817-1.745,1.748v15.692c0,0.928,0.821,1.745,1.745,1.745h3.487c0.924,0,1.743-0.817,1.743-1.745V46.686z
		 M111.183,112.951H93.745v15.692h17.438V112.951z M111.183,92.027H93.745v17.437h17.438V92.027z M111.183,72.84H93.745v15.701
		h17.438V72.84z M90.255,112.951H72.817v15.692h17.438V112.951z M90.255,92.027H72.817v17.437h17.438V92.027z M90.255,72.84H72.817
		v15.701h17.438V72.84z M74.563,46.686c0-0.93-0.819-1.748-1.746-1.748H69.33c-0.926,0-1.745,0.817-1.745,1.748v15.692
		c0,0.928,0.819,1.745,1.745,1.745h3.487c0.926,0,1.746-0.817,1.746-1.745V46.686z M69.33,112.951H53.636v15.692H69.33V112.951z
		 M69.33,92.027H53.636v17.437H69.33V92.027z M69.33,72.84H53.636v15.701H69.33V72.84z M137.34,128.644
		c0,3.815-3.162,6.978-6.976,6.978H53.636c-3.816,0-6.975-3.162-6.975-6.978V58.89c0-3.812,3.159-6.976,6.975-6.976h6.976v-5.228
		c0-4.798,3.923-8.723,8.719-8.723h3.487c4.796,0,8.719,3.925,8.719,8.723v5.228h20.928v-5.228c0-4.798,3.924-8.723,8.719-8.723
		h3.487c4.794,0,8.719,3.925,8.719,8.723v5.228h6.976c3.813,0,6.976,3.164,6.976,6.976V128.644z"/>
</g>
</svg>
