<?xml version="1.0" encoding="utf-8"?>
<!-- Generator: Adobe Illustrator 15.0.0, SVG Export Plug-In  -->
<!DOCTYPE svg PUBLIC "-//W3C//DTD SVG 1.1//EN" "http://www.w3.org/Graphics/SVG/1.1/DTD/svg11.dtd" [
	<!ENTITY ns_flows "http://ns.adobe.com/Flows/1.0/">
]>
<svg version="1.1"
	 xmlns="http://www.w3.org/2000/svg" xmlns:xlink="http://www.w3.org/1999/xlink" xmlns:a="http://ns.adobe.com/AdobeSVGViewerExtensions/3.0/"
	 x="0px" y="0px" width="272px" height="100px" viewBox="-1.078 -2.498 272 100" enable-background="new -1.078 -2.498 272 100"
	 xml:space="preserve">
<defs>
</defs>
<path d="M113.32,13.599c1.118,0,2.239,0.095,3.356,0.287c1.121,0.19,2.131,0.592,3.035,1.201c0.903,0.612,1.64,1.49,2.211,2.635
	c0.577,1.144,0.861,2.658,0.861,4.541v11.41c-0.663,0.127-1.259,0.208-1.794,0.249c-0.534,0.037-1.003,0.057-1.411,0.057
	c-0.433,0-0.916-0.02-1.448-0.057c-0.538-0.04-1.133-0.122-1.796-0.249V22.948c0-1.348-0.255-2.315-0.764-2.901
	c-0.508-0.583-1.284-0.876-2.328-0.876c-0.278,0-0.578,0.025-0.896,0.076c-0.317,0.051-0.514,0.102-0.592,0.153v14.271
	c-0.661,0.127-1.258,0.208-1.793,0.249c-0.532,0.037-1.003,0.057-1.411,0.057c-0.434,0-0.917-0.02-1.448-0.057
	c-0.535-0.04-1.135-0.122-1.796-0.249V14.935c0.891-0.306,1.972-0.604,3.245-0.896C109.821,13.745,111.413,13.599,113.32,13.599z"/>
<path d="M125.912,23.941c0-1.552,0.208-2.971,0.628-4.255c0.422-1.284,1.044-2.386,1.872-3.302c0.828-0.916,1.85-1.622,3.072-2.117
	c1.219-0.496,2.633-0.743,4.236-0.743c1.627,0,3.051,0.247,4.274,0.743c1.219,0.496,2.245,1.202,3.071,2.117
	c0.823,0.916,1.45,2.018,1.869,3.302c0.421,1.285,0.629,2.704,0.629,4.255c0,1.524-0.208,2.919-0.629,4.178
	c-0.419,1.258-1.046,2.341-1.869,3.244c-0.826,0.904-1.853,1.596-3.071,2.079c-1.224,0.483-2.647,0.725-4.274,0.725
	c-1.603,0-3.017-0.242-4.236-0.725c-1.222-0.483-2.245-1.175-3.072-2.079c-0.828-0.903-1.45-1.986-1.872-3.244
	C126.121,26.861,125.912,25.466,125.912,23.941z M139.039,23.941c0-1.628-0.274-2.875-0.819-3.74
	c-0.548-0.864-1.383-1.298-2.5-1.298c-1.122,0-1.947,0.434-2.481,1.298c-0.536,0.866-0.802,2.112-0.802,3.74
	c0,1.602,0.267,2.836,0.802,3.702c0.534,0.864,1.359,1.296,2.481,1.296c1.117,0,1.952-0.432,2.5-1.296
	C138.765,26.777,139.039,25.543,139.039,23.941z"/>
<path d="M158.385,21.346c0.763,0.204,1.458,0.453,2.079,0.745c0.626,0.293,1.157,0.667,1.602,1.125
	c0.447,0.458,0.796,1.02,1.052,1.68c0.255,0.661,0.382,1.461,0.382,2.404c0,0.967-0.195,1.87-0.593,2.709
	c-0.394,0.839-0.979,1.565-1.753,2.173c-0.778,0.612-1.732,1.096-2.862,1.451c-1.132,0.357-2.437,0.534-3.912,0.534
	c-1.222,0-2.355-0.09-3.396-0.267c-1.046-0.178-2.149-0.485-3.32-0.917c0.127-1.729,0.596-3.484,1.412-5.266
	c0.816,0.382,1.665,0.667,2.557,0.86c0.891,0.19,1.78,0.286,2.671,0.286c0.306,0,0.621-0.013,0.952-0.038s0.625-0.082,0.88-0.172
	c0.253-0.089,0.464-0.208,0.629-0.361c0.166-0.154,0.25-0.358,0.25-0.611c0-0.331-0.17-0.578-0.499-0.743
	c-0.329-0.167-0.713-0.313-1.144-0.44l-2.594-0.724c-1.352-0.382-2.47-1.03-3.359-1.946c-0.89-0.915-1.336-2.163-1.336-3.74
	c0-0.992,0.204-1.895,0.611-2.71c0.407-0.813,0.979-1.506,1.718-2.079c0.736-0.571,1.606-1.011,2.613-1.317
	c1.007-0.304,2.119-0.456,3.339-0.456c0.966,0,2.021,0.101,3.166,0.304c1.147,0.205,2.277,0.496,3.396,0.878
	c-0.051,0.815-0.214,1.686-0.496,2.614c-0.278,0.928-0.599,1.749-0.952,2.46c-0.688-0.279-1.516-0.534-2.481-0.764
	c-0.966-0.228-1.856-0.343-2.672-0.343c-1.194,0-1.792,0.33-1.792,0.993c0,0.28,0.138,0.496,0.419,0.648
	c0.278,0.153,0.596,0.28,0.954,0.382L158.385,21.346z"/>
<path d="M165.863,23.941c0-1.552,0.21-2.971,0.631-4.255c0.421-1.284,1.044-2.386,1.867-3.302c0.826-0.916,1.851-1.622,3.075-2.117
	c1.22-0.496,2.632-0.743,4.236-0.743c1.626,0,3.052,0.247,4.272,0.743c1.222,0.496,2.242,1.202,3.071,2.117
	c0.826,0.916,1.449,2.018,1.87,3.302c0.421,1.285,0.629,2.704,0.629,4.255c0,1.524-0.208,2.919-0.629,4.178
	c-0.421,1.258-1.044,2.341-1.87,3.244c-0.829,0.904-1.85,1.596-3.071,2.079c-1.221,0.483-2.646,0.725-4.272,0.725
	c-1.604,0-3.017-0.242-4.236-0.725c-1.225-0.483-2.249-1.175-3.075-2.079c-0.823-0.903-1.446-1.986-1.867-3.244
	C166.073,26.861,165.863,25.466,165.863,23.941z M178.991,23.941c0-1.628-0.274-2.875-0.822-3.74
	c-0.547-0.864-1.378-1.298-2.496-1.298c-1.122,0-1.949,0.434-2.483,1.298c-0.533,0.866-0.801,2.112-0.801,3.74
	c0,1.602,0.268,2.836,0.801,3.702c0.534,0.864,1.361,1.296,2.483,1.296c1.118,0,1.949-0.432,2.496-1.296
	C178.717,26.777,178.991,25.543,178.991,23.941z"/>
<path d="M195.282,28.33h7.216c0.127,0.507,0.208,0.979,0.247,1.412c0.037,0.433,0.057,0.852,0.057,1.258
	c0,0.407-0.02,0.834-0.057,1.279c-0.039,0.446-0.12,0.923-0.247,1.431h-13.662l0.039-19.729c0.559-0.125,1.112-0.215,1.657-0.266
	c0.548-0.05,1.075-0.076,1.584-0.076c0.484,0,1.007,0.026,1.565,0.076c0.559,0.05,1.108,0.14,1.64,0.266L195.282,28.33z"/>
<path d="M204.177,23.941c0-1.552,0.208-2.971,0.629-4.255c0.419-1.284,1.042-2.386,1.87-3.302c0.825-0.916,1.85-1.622,3.072-2.117
	c1.22-0.496,2.632-0.743,4.232-0.743c1.629,0,3.056,0.247,4.273,0.743c1.225,0.496,2.247,1.202,3.075,2.117
	c0.825,0.916,1.448,2.018,1.87,3.302c0.42,1.285,0.626,2.704,0.626,4.255c0,1.524-0.206,2.919-0.626,4.178
	c-0.422,1.258-1.045,2.341-1.87,3.244c-0.828,0.904-1.851,1.596-3.075,2.079c-1.218,0.483-2.645,0.725-4.273,0.725
	c-1.601,0-3.013-0.242-4.232-0.725c-1.223-0.483-2.247-1.175-3.072-2.079c-0.828-0.903-1.451-1.986-1.87-3.244
	C204.385,26.861,204.177,25.466,204.177,23.941z M217.304,23.941c0-1.628-0.275-2.875-0.822-3.74
	c-0.547-0.864-1.379-1.298-2.501-1.298c-1.117,0-1.943,0.434-2.479,1.298c-0.534,0.866-0.801,2.112-0.801,3.74
	c0,1.602,0.267,2.836,0.801,3.702c0.535,0.864,1.361,1.296,2.479,1.296c1.122,0,1.954-0.432,2.501-1.296
	C217.028,26.777,217.304,25.543,217.304,23.941z"/>
<path d="M114.809,50.504c0.762,0.203,1.454,0.45,2.08,0.742c0.623,0.294,1.157,0.668,1.601,1.128
	c0.445,0.457,0.796,1.017,1.049,1.679c0.253,0.662,0.381,1.465,0.381,2.405c0,0.966-0.197,1.865-0.591,2.709
	c-0.395,0.837-0.979,1.562-1.756,2.173c-0.775,0.612-1.729,1.095-2.861,1.451c-1.134,0.354-2.437,0.533-3.911,0.533
	c-1.222,0-2.354-0.089-3.397-0.267c-1.042-0.179-2.149-0.484-3.32-0.917c0.128-1.728,0.598-3.484,1.414-5.264
	c0.812,0.381,1.664,0.666,2.555,0.858c0.89,0.19,1.781,0.288,2.67,0.288c0.308,0,0.625-0.016,0.958-0.039
	c0.328-0.027,0.622-0.085,0.875-0.175c0.253-0.088,0.463-0.209,0.63-0.362c0.165-0.154,0.248-0.356,0.248-0.609
	c0-0.331-0.165-0.579-0.498-0.744c-0.328-0.166-0.711-0.312-1.144-0.437l-2.594-0.729c-1.35-0.38-2.467-1.03-3.358-1.943
	c-0.891-0.917-1.336-2.162-1.336-3.741c0-0.992,0.203-1.895,0.611-2.71c0.406-0.812,0.978-1.505,1.717-2.079
	c0.738-0.572,1.608-1.011,2.614-1.316c1.005-0.305,2.119-0.457,3.34-0.457c0.964,0,2.022,0.102,3.166,0.305
	c1.146,0.202,2.276,0.496,3.396,0.877c-0.05,0.813-0.217,1.685-0.496,2.614c-0.279,0.93-0.599,1.75-0.954,2.462
	c-0.687-0.28-1.512-0.535-2.48-0.764c-0.967-0.229-1.856-0.343-2.67-0.343c-1.197,0-1.794,0.331-1.794,0.991
	c0,0.279,0.139,0.498,0.419,0.649c0.281,0.15,0.598,0.28,0.954,0.382L114.809,50.504z"/>
<path d="M122.287,53.099c0-1.553,0.211-2.971,0.631-4.255c0.418-1.284,1.042-2.385,1.869-3.301c0.826-0.916,1.85-1.622,3.072-2.118
	c1.22-0.496,2.633-0.743,4.236-0.743c1.628,0,3.053,0.248,4.274,0.743c1.22,0.497,2.242,1.203,3.069,2.118
	c0.828,0.916,1.451,2.017,1.872,3.301c0.419,1.284,0.627,2.702,0.627,4.255c0,1.525-0.208,2.917-0.627,4.177
	c-0.421,1.261-1.044,2.341-1.872,3.245c-0.827,0.905-1.85,1.597-3.069,2.08c-1.222,0.482-2.646,0.724-4.274,0.724
	c-1.603,0-3.016-0.241-4.236-0.724c-1.222-0.483-2.246-1.175-3.072-2.08c-0.827-0.904-1.45-1.984-1.869-3.245
	C122.498,56.016,122.287,54.624,122.287,53.099z M135.414,53.099c0-1.629-0.274-2.875-0.82-3.741c-0.549-0.863-1.38-1.295-2.5-1.295
	c-1.119,0-1.947,0.433-2.48,1.295c-0.536,0.866-0.8,2.112-0.8,3.741c0,1.603,0.265,2.837,0.8,3.7
	c0.534,0.866,1.361,1.297,2.48,1.297c1.12,0,1.95-0.431,2.5-1.297C135.14,55.936,135.414,54.701,135.414,53.099z"/>
<path d="M151.708,56.952v5.839c-0.533,0.127-1.083,0.213-1.642,0.247c-0.559,0.037-1.081,0.057-1.563,0.057
	c-0.511,0-1.036-0.02-1.584-0.057c-0.547-0.034-1.102-0.12-1.661-0.247V43.139h14.577c0.127,0.509,0.211,0.979,0.248,1.412
	c0.038,0.434,0.058,0.853,0.058,1.259c0,0.407-0.02,0.834-0.058,1.279c-0.037,0.447-0.121,0.923-0.248,1.431h-8.127v3.054h6.565
	c0.123,0.509,0.208,0.978,0.245,1.412c0.037,0.431,0.057,0.849,0.057,1.258c0,0.407-0.02,0.834-0.057,1.277
	c-0.037,0.444-0.122,0.926-0.245,1.432H151.708z"/>
<path d="M167.24,48.52h-5.65c-0.126-0.508-0.208-0.984-0.247-1.431c-0.037-0.444-0.059-0.872-0.059-1.279
	c0-0.406,0.021-0.826,0.059-1.259c0.039-0.432,0.121-0.902,0.247-1.412h17.744c0.127,0.509,0.21,0.979,0.251,1.412
	c0.037,0.434,0.055,0.853,0.055,1.259c0,0.407-0.018,0.834-0.055,1.279c-0.041,0.447-0.124,0.923-0.251,1.431h-5.647v14.309
	c-0.66,0.104-1.259,0.18-1.792,0.229c-0.534,0.051-1.021,0.076-1.451,0.076c-0.433,0-0.915-0.025-1.449-0.076
	c-0.535-0.05-1.121-0.126-1.754-0.229V48.52z"/>
<path d="M201.429,54.512l2.364-11.373c0.205-0.051,0.6-0.102,1.185-0.152c0.582-0.052,1.205-0.077,1.87-0.077
	c0.839,0,1.582,0.025,2.233,0.077c0.648,0.05,1.111,0.101,1.391,0.152l-6.18,19.652c-0.433,0.127-0.904,0.213-1.412,0.247
	c-0.511,0.037-1.021,0.057-1.529,0.057c-0.508,0-1.022-0.02-1.546-0.057c-0.521-0.034-1.062-0.12-1.62-0.247l-2.785-10.684
	c-0.483,1.706-0.972,3.497-1.47,5.379c-0.495,1.883-0.975,3.651-1.431,5.305c-0.533,0.127-1.061,0.213-1.583,0.247
	c-0.52,0.037-1.038,0.057-1.544,0.057c-0.511,0-1.021-0.02-1.527-0.057c-0.509-0.034-0.983-0.12-1.412-0.247l-5.992-19.652
	c0.282-0.051,0.771-0.102,1.468-0.152c0.699-0.052,1.473-0.077,2.313-0.077c0.658,0,1.301,0.025,1.924,0.077
	c0.625,0.05,1.038,0.101,1.24,0.152l2.481,11.678l2.748-11.678c0.431-0.127,0.909-0.209,1.43-0.249
	c0.521-0.038,1.038-0.056,1.544-0.056c0.511,0,1.024,0.018,1.547,0.056c0.521,0.039,1.05,0.122,1.583,0.249L201.429,54.512z"/>
<path d="M211.463,56.419c0-1.246,0.269-2.278,0.802-3.093c0.534-0.813,1.222-1.463,2.061-1.943c0.84-0.485,1.767-0.822,2.785-1.013
	c1.021-0.193,2.01-0.285,2.976-0.285h2.328c-0.023-0.461-0.15-0.841-0.378-1.146c-0.23-0.307-0.522-0.541-0.879-0.707
	c-0.356-0.165-0.752-0.279-1.182-0.343c-0.435-0.063-0.879-0.095-1.338-0.095c-0.612,0-1.322,0.07-2.135,0.209
	c-0.816,0.139-1.655,0.361-2.522,0.668c-0.228-0.434-0.424-0.828-0.59-1.184c-0.163-0.354-0.29-0.719-0.382-1.087
	c-0.09-0.368-0.149-0.75-0.19-1.146c-0.037-0.392-0.057-0.845-0.057-1.354c1.219-0.407,2.437-0.713,3.644-0.915
	c1.212-0.204,2.296-0.305,3.265-0.305c1.322,0,2.516,0.159,3.585,0.476c1.069,0.32,1.979,0.809,2.729,1.47
	c0.75,0.662,1.328,1.507,1.735,2.538s0.611,2.258,0.611,3.682v11.181c-0.966,0.279-2.137,0.56-3.512,0.84
	c-1.371,0.278-2.823,0.419-4.349,0.419c-1.324,0-2.537-0.121-3.642-0.36c-1.108-0.244-2.059-0.631-2.848-1.165
	c-0.788-0.535-1.402-1.24-1.85-2.119C211.687,58.766,211.463,57.69,211.463,56.419z M220.47,58.556c0.229,0,0.562-0.025,0.991-0.076
	c0.435-0.051,0.75-0.102,0.953-0.156v-4.194h-2.172c-0.894,0-1.642,0.19-2.253,0.572c-0.608,0.38-0.914,0.917-0.914,1.601
	c0,0.511,0.111,0.912,0.343,1.206c0.23,0.29,0.515,0.516,0.859,0.666c0.343,0.149,0.711,0.255,1.105,0.306
	C219.774,58.53,220.139,58.556,220.47,58.556z"/>
<path d="M232.414,43.216c1.194-0.153,2.435-0.281,3.718-0.382c1.285-0.102,2.503-0.152,3.646-0.152c3.078,0,5.387,0.578,6.925,1.734
	c1.541,1.16,2.31,2.78,2.31,4.867c0,0.788-0.089,1.474-0.267,2.063c-0.179,0.584-0.396,1.085-0.65,1.505
	c-0.251,0.421-0.521,0.756-0.801,1.011c-0.28,0.256-0.508,0.458-0.688,0.612l4.352,8.317c-0.511,0.102-1.075,0.178-1.698,0.228
	c-0.623,0.051-1.228,0.076-1.812,0.076c-0.713,0-1.4-0.025-2.063-0.076c-0.66-0.05-1.207-0.126-1.64-0.228l-4.234-9.005l0.532-0.307
	c0.89-0.508,1.501-1.049,1.832-1.622c0.329-0.572,0.497-1.188,0.497-1.85c0-0.66-0.197-1.202-0.592-1.623
	c-0.396-0.419-1.024-0.629-1.892-0.629c-0.482,0-0.851,0.026-1.106,0.077v14.995c-0.66,0.129-1.258,0.21-1.793,0.247
	c-0.534,0.039-1.003,0.059-1.41,0.059c-0.435,0-0.901-0.02-1.412-0.059c-0.511-0.037-1.095-0.118-1.755-0.247V43.216z"/>
<path d="M258.134,55.046c0.278,1.042,0.769,1.778,1.468,2.212c0.701,0.433,1.621,0.648,2.768,0.648c0.736,0,1.564-0.089,2.481-0.267
	c0.913-0.177,1.817-0.443,2.707-0.802c0.356,0.664,0.668,1.45,0.935,2.366c0.271,0.917,0.413,1.869,0.44,2.86
	c-2.265,0.84-4.583,1.26-6.947,1.26c-1.83,0-3.402-0.255-4.711-0.763c-1.311-0.509-2.378-1.214-3.207-2.119
	c-0.824-0.899-1.436-1.975-1.831-3.223c-0.394-1.247-0.59-2.606-0.59-4.085c0-1.448,0.204-2.81,0.609-4.08
	c0.409-1.272,1.017-2.379,1.83-3.322c0.816-0.938,1.831-1.685,3.055-2.23c1.221-0.546,2.646-0.82,4.276-0.82
	c1.344,0,2.548,0.228,3.604,0.687c1.054,0.457,1.952,1.087,2.689,1.887c0.736,0.803,1.304,1.771,1.697,2.902
	c0.395,1.132,0.592,2.36,0.592,3.683c0,0.684-0.031,1.303-0.096,1.851c-0.063,0.547-0.121,0.997-0.171,1.355H258.134z
	 M261.186,47.527c-0.813,0-1.514,0.255-2.098,0.763c-0.586,0.509-0.931,1.296-1.032,2.368h6.105
	c-0.051-0.895-0.325-1.635-0.82-2.234C262.847,47.827,262.126,47.527,261.186,47.527z"/>
<path fill="#79AB2B" d="M105.008,72.906c0.15-0.028,0.315-0.048,0.491-0.063c0.171-0.012,0.336-0.02,0.489-0.02
	s0.317,0.008,0.489,0.02c0.174,0.016,0.339,0.035,0.492,0.063l6.534,11.271V72.906c0.167-0.028,0.34-0.048,0.522-0.063
	c0.178-0.012,0.359-0.02,0.542-0.02c0.155,0,0.313,0.008,0.479,0.02c0.168,0.016,0.329,0.035,0.48,0.063v15.008
	c-0.151,0.027-0.313,0.047-0.488,0.063c-0.177,0.014-0.34,0.021-0.491,0.021c-0.155,0-0.316-0.008-0.491-0.021
	c-0.174-0.016-0.339-0.035-0.491-0.063l-6.554-11.208v11.208c-0.155,0.027-0.316,0.047-0.491,0.063
	c-0.174,0.014-0.344,0.021-0.51,0.021c-0.182,0-0.359-0.008-0.534-0.021c-0.174-0.016-0.329-0.035-0.468-0.063V72.906z"/>
<path fill="#79AB2B" d="M119.2,72.906h8.245c0.041,0.279,0.063,0.585,0.063,0.92c0,0.153-0.004,0.312-0.012,0.479
	c-0.008,0.166-0.023,0.321-0.051,0.46h-6.116v4.3h4.883c0.028,0.139,0.05,0.288,0.063,0.448c0.014,0.159,0.021,0.317,0.021,0.47
	c0,0.153-0.008,0.313-0.021,0.48c-0.014,0.166-0.035,0.317-0.063,0.46h-4.883v5.132h6.283c0.043,0.278,0.063,0.588,0.063,0.921
	c0,0.15-0.004,0.312-0.01,0.479c-0.008,0.165-0.025,0.321-0.053,0.459H119.2V72.906z"/>
<path fill="#79AB2B" d="M132.976,74.765h-3.903c-0.029-0.139-0.05-0.294-0.064-0.46c-0.013-0.167-0.021-0.325-0.021-0.479
	c0-0.156,0.008-0.31,0.021-0.474c0.014-0.157,0.035-0.308,0.064-0.446h9.937c0.023,0.139,0.047,0.285,0.063,0.438
	c0.012,0.152,0.018,0.306,0.018,0.462c0,0.149-0.006,0.315-0.018,0.488c-0.016,0.174-0.039,0.331-0.063,0.47h-3.905v13.149
	c-0.32,0.043-0.669,0.063-1.044,0.063c-0.391,0-0.75-0.02-1.085-0.063V74.765z"/>
<path fill="#79AB2B" d="M140.093,72.906c0.15-0.028,0.343-0.048,0.575-0.063c0.229-0.012,0.441-0.02,0.635-0.02
	c0.194,0,0.396,0.008,0.596,0.02c0.2,0.016,0.386,0.035,0.553,0.063l2.567,12.504l3.089-12.504c0.167-0.028,0.353-0.048,0.553-0.063
	c0.201-0.012,0.394-0.02,0.574-0.02c0.164,0,0.354,0.008,0.563,0.02c0.208,0.016,0.39,0.035,0.543,0.063l3.108,12.628l2.611-12.628
	c0.152-0.028,0.314-0.048,0.489-0.063c0.175-0.012,0.347-0.02,0.512-0.02c0.195,0,0.394,0.008,0.595,0.02
	c0.2,0.016,0.382,0.035,0.533,0.063l-3.61,15.008c-0.17,0.027-0.364,0.047-0.587,0.063c-0.222,0.014-0.422,0.021-0.605,0.021
	c-0.194,0-0.411-0.008-0.645-0.021c-0.237-0.016-0.453-0.035-0.648-0.063l-2.964-11.751l-3.005,11.751
	c-0.193,0.027-0.407,0.047-0.638,0.063c-0.229,0.014-0.441,0.021-0.635,0.021c-0.167,0-0.36-0.008-0.572-0.021
	c-0.216-0.016-0.411-0.035-0.576-0.063L140.093,72.906z"/>
<path fill="#79AB2B" d="M166.015,88.164c-1.087,0-2.023-0.191-2.818-0.575c-0.792-0.382-1.446-0.915-1.969-1.606
	c-0.522-0.689-0.913-1.506-1.172-2.45c-0.26-0.948-0.388-1.984-0.388-3.11c0-1.129,0.128-2.165,0.388-3.114
	c0.259-0.942,0.649-1.762,1.172-2.449c0.522-0.689,1.177-1.229,1.969-1.617c0.795-0.391,1.731-0.584,2.818-0.584
	s2.025,0.193,2.818,0.584c0.793,0.388,1.449,0.928,1.973,1.617c0.521,0.688,0.907,1.507,1.159,2.449
	c0.249,0.949,0.374,1.985,0.374,3.114c0,1.126-0.125,2.162-0.374,3.11c-0.252,0.944-0.639,1.761-1.159,2.45
	c-0.523,0.691-1.18,1.225-1.973,1.606C168.04,87.973,167.102,88.164,166.015,88.164z M166.015,86.327
	c0.695,0,1.297-0.137,1.81-0.407c0.506-0.271,0.927-0.664,1.26-1.18c0.333-0.515,0.584-1.132,0.752-1.856
	c0.163-0.723,0.249-1.546,0.249-2.462c0-0.905-0.086-1.726-0.249-2.451c-0.168-0.732-0.419-1.352-0.752-1.86
	c-0.333-0.507-0.754-0.897-1.26-1.169c-0.513-0.272-1.114-0.406-1.81-0.406s-1.297,0.134-1.806,0.406
	c-0.508,0.271-0.929,0.662-1.262,1.169c-0.337,0.509-0.584,1.128-0.752,1.86c-0.165,0.726-0.249,1.546-0.249,2.451
	c0,0.916,0.084,1.739,0.249,2.462c0.168,0.725,0.415,1.342,0.752,1.856c0.333,0.516,0.754,0.909,1.262,1.18
	C164.718,86.19,165.319,86.327,166.015,86.327z"/>
<path fill="#79AB2B" d="M175.489,72.885c0.306-0.026,0.587-0.054,0.836-0.081c0.251-0.029,0.498-0.053,0.742-0.076
	c0.245-0.018,0.498-0.037,0.763-0.051c0.266-0.014,0.556-0.02,0.875-0.02c0.711,0,1.414,0.07,2.109,0.209
	c0.697,0.14,1.314,0.381,1.855,0.729c0.542,0.349,0.985,0.816,1.326,1.408c0.343,0.593,0.511,1.34,0.511,2.244
	c0,0.545-0.088,1.038-0.271,1.479c-0.18,0.448-0.409,0.846-0.688,1.192c-0.279,0.347-0.597,0.652-0.951,0.907
	c-0.354,0.257-0.696,0.468-1.033,0.637l-0.252,0.125l4.366,6.325c-0.377,0.043-0.8,0.063-1.275,0.063
	c-0.376,0-0.752-0.02-1.126-0.063l-4.8-6.95v-0.082l0.165-0.043c0.378-0.1,0.773-0.231,1.19-0.396
	c0.418-0.169,0.804-0.39,1.158-0.66c0.356-0.271,0.65-0.598,0.887-0.979c0.235-0.384,0.356-0.845,0.356-1.389
	c0-1.001-0.297-1.745-0.887-2.231c-0.594-0.489-1.39-0.732-2.392-0.732c-0.237,0-0.457,0.008-0.658,0.02
	c-0.2,0.016-0.429,0.035-0.678,0.064v13.379c-0.151,0.014-0.323,0.027-0.51,0.043c-0.189,0.012-0.366,0.02-0.534,0.02
	c-0.165,0-0.347-0.004-0.543-0.01c-0.195-0.01-0.372-0.025-0.544-0.053V72.885z"/>
<path fill="#79AB2B" d="M187.909,72.906c0.167-0.028,0.341-0.048,0.521-0.063c0.182-0.012,0.362-0.02,0.544-0.02
	c0.181,0,0.362,0.008,0.543,0.02c0.184,0.016,0.353,0.035,0.521,0.063v15.008c-0.168,0.027-0.337,0.047-0.521,0.063
	c-0.181,0.014-0.362,0.021-0.543,0.021c-0.195,0-0.38-0.008-0.563-0.021c-0.183-0.016-0.349-0.035-0.502-0.063V72.906z
	 M190.665,80.296l4.824-7.39c0.192-0.028,0.383-0.048,0.57-0.063c0.19-0.012,0.36-0.02,0.51-0.02c0.184,0,0.378,0.008,0.587,0.02
	c0.21,0.016,0.424,0.035,0.648,0.063l-4.76,7.202l5.365,7.806c-0.224,0.027-0.442,0.047-0.658,0.063
	c-0.216,0.014-0.421,0.021-0.617,0.021c-0.166,0-0.347-0.008-0.544-0.021c-0.194-0.016-0.393-0.035-0.604-0.063L190.665,80.296z"/>
<path fill-rule="evenodd" clip-rule="evenodd" fill="#5A74B6" d="M8.108,18.158c0.066-0.201,0.159-0.38,0.278-0.539
	c0.051-0.07,0.105-0.135,0.168-0.202c0.021-0.018,0.039-0.038,0.063-0.06c0.09-0.083,0.187-0.155,0.295-0.216
	c0.004-0.006,0.016-0.012,0.027-0.017l0.031-0.013l27.731-16.91h0.015c0.054-0.031,0.112-0.056,0.17-0.078
	c0.059-0.021,0.124-0.042,0.186-0.062l0.12-0.03C37.324,0.008,37.452-0.002,37.58,0c0.1,0.008,0.205,0.022,0.31,0.047l28.19,4.069
	l0.062,0.016c0.133,0.018,0.263,0.049,0.387,0.091l0.23,0.108c0.193,0.104,0.365,0.237,0.508,0.401l18.838,21.18
	c0.02,0.024,0.041,0.048,0.061,0.076c0.018,0.021,0.031,0.042,0.047,0.063c0.006,0.01,0.012,0.021,0.016,0.031
	c0.039,0.053,0.073,0.109,0.106,0.168l0.016,0.017c0.142,0.251,0.212,0.528,0.218,0.832v0.046c0,0.026,0,0.052,0,0.079v44.036
	c0.012,0.148,0.008,0.296-0.019,0.448l-0.014,0.092c-0.076,0.382-0.246,0.701-0.509,0.958c-0.081,0.082-0.175,0.159-0.277,0.229
	c-0.016,0.012-0.031,0.021-0.045,0.031L56.663,95.383c-0.014,0.006-0.029,0.018-0.046,0.029c-0.021,0.02-0.039,0.031-0.063,0.047
	c-0.014,0.012-0.021,0.02-0.029,0.031l-0.294,0.156c-0.205,0.093-0.42,0.144-0.649,0.153H55.4c-0.059-0.002-0.114-0.01-0.17-0.018
	l-0.294-0.059l-0.155-0.063c-0.169-0.068-0.328-0.16-0.462-0.277L1.048,61.657c-0.077-0.04-0.151-0.085-0.216-0.14l-0.047-0.031
	c-0.124-0.08-0.236-0.185-0.338-0.308c-0.043-0.047-0.084-0.098-0.122-0.154l-0.049-0.073c-0.145-0.223-0.23-0.458-0.261-0.713
	v-0.063c-0.011-0.064-0.019-0.131-0.015-0.201v-0.181c0.006-0.043,0.012-0.082,0.015-0.127l0.016-0.045l8.031-41.324l0.016-0.031
	C8.086,18.231,8.098,18.195,8.108,18.158z M21.781,45.303L6.013,58.838l29.872,5.285L21.781,45.303z M25.773,44.47l14.087,18.805
	l9.512-18.805H25.773z M38.983,68.424L10.727,63.43l39.569,25.048L38.983,68.424z M19.761,42.173l-9.108-17.818L4.687,55.138
	L19.761,42.173z M42.989,22.258L26.25,40.771h23.476L42.989,22.258z M55.277,89.802l14.151-32.567l-26.59,10.465L55.277,89.802z
	 M53.425,40.079l25.526-12.225L46.565,21.21L53.425,40.079z M68.546,53.595l-15.383-8.43l-9.156,18.096L68.546,53.595z
	 M75.021,53.688l7.847,11.686V35.931L75.021,53.688z M82.203,71.045L73.248,57.71L60.039,88.109L82.203,71.045z M72.03,51.283
	l8.973-20.316L56.431,42.729L72.03,51.283z M65.496,8.325l-16.649,9.572l30.768,6.304L65.496,8.325z M39.507,20.579H12.886
	l9.62,18.806L39.507,20.579z M40.325,4.148l4.346,11.884L60.316,7.03L40.325,4.148z M41.035,16.879L36.545,4.625L16.462,16.879
	H41.035z"/>
</svg>
