<?xml version="1.0" encoding="utf-8"?>
<!-- Generator: Adobe Illustrator 15.0.0, SVG Export Plug-In  -->
<!DOCTYPE svg PUBLIC "-//W3C//DTD SVG 1.1//EN" "http://www.w3.org/Graphics/SVG/1.1/DTD/svg11.dtd" [
	<!ENTITY ns_flows "http://ns.adobe.com/Flows/1.0/">
]>
<svg version="1.1"
	 xmlns="http://www.w3.org/2000/svg" xmlns:xlink="http://www.w3.org/1999/xlink" xmlns:a="http://ns.adobe.com/AdobeSVGViewerExtensions/3.0/"
	 x="0px" y="0px" width="186px" height="160px" viewBox="0 0 186 160" enable-background="new 0 0 186 160" xml:space="preserve">
<defs>
</defs>
<g display="none">
	<defs>
		<rect id="SVGID_22_" y="0.83" width="171.932" height="136.266"/>
	</defs>
	<clipPath id="SVGID_23_" display="inline">
		<use xlink:href="#SVGID_22_"  display="none" overflow="visible"/>
	</clipPath>
	<path clip-path="url(#SVGID_23_)" fill="#5973B5" d="M34.482,51.277L11.425,91.525c-0.11,0.188-9.555,16.6-3.586,27.035
		c3.35,5.863,11.173,8.985,23.258,9.285l44.298-76.57L34.482,51.277L34.482,51.277z M32.779,133.746h-0.013
		c-15.309-0.051-25.417-4.186-30.037-12.288c-7.643-13.394,3.148-32.094,3.613-32.88L30.23,46.879
		c0.523-0.916,1.497-1.479,2.548-1.479H80.49c1.053,0,2.021,0.561,2.542,1.47c0.529,0.909,0.526,2.031,0,2.94l-47.714,82.469
		C34.799,133.188,33.827,133.746,32.779,133.746"/>
</g>
<g display="none">
	<defs>
		<rect id="SVGID_21_" y="0.83" width="171.932" height="136.266"/>
	</defs>
	<clipPath id="SVGID_24_" display="inline">
		<use xlink:href="#SVGID_21_"  display="none" overflow="visible"/>
	</clipPath>
	<path clip-path="url(#SVGID_24_)" fill="#5973B5" d="M45.03,131.073l82.119,0.138l-19.877-34.12H64.643L45.03,131.073z
		 M132.266,137.096h-0.004l-92.323-0.154c-1.047-0.004-2.012-0.563-2.539-1.474c-0.526-0.905-0.526-2.026,0-2.936l23.002-39.849
		c0.527-0.91,1.497-1.47,2.546-1.47h46.009c1.049,0,2.016,0.558,2.544,1.461l23.304,40.003c0.532,0.909,0.532,2.031,0.012,2.943
		C134.289,136.533,133.314,137.096,132.266,137.096"/>
</g>
<g display="none">
	<defs>
		<rect id="SVGID_20_" y="0.83" width="171.932" height="136.266"/>
	</defs>
	<clipPath id="SVGID_25_" display="inline">
		<use xlink:href="#SVGID_20_"  display="none" overflow="visible"/>
	</clipPath>
	<path clip-path="url(#SVGID_25_)" fill="#5973B5" d="M73.449,83.445h42.088c1.04,0,2.007,0.553,2.533,1.451l22.986,39.184
		c11.973-0.303,19.719-3.396,23.045-9.213c5.955-10.415-3.498-26.834-3.594-27L115.717,9.661L94.523,46.382L73.449,83.445z
		 M139.387,129.979c-1.039,0-2.009-0.555-2.531-1.451L113.854,89.32H68.398c-1.046,0-2.016-0.555-2.539-1.459
		c-0.528-0.904-0.534-2.021-0.015-2.93l23.577-41.471l23.761-41.163c0.524-0.909,1.493-1.469,2.543-1.469h0.006
		c1.054,0.002,2.024,0.565,2.547,1.478l47.313,82.616c0.447,0.763,11.249,19.476,3.622,32.843
		c-4.592,8.053-14.625,12.161-29.814,12.213H139.387z"/>
</g>
<g display="none">
	<defs>
		<rect id="SVGID_19_" y="0.83" width="171.932" height="136.266"/>
	</defs>
	<clipPath id="SVGID_26_" display="inline">
		<use xlink:href="#SVGID_19_"  display="none" overflow="visible"/>
	</clipPath>
	<path clip-path="url(#SVGID_26_)" fill="#5973B5" d="M29.852,82.816c0,1.367-1.596,2.474-3.561,2.474
		c-1.966,0-3.561-1.106-3.561-2.474v-4.939c0-1.365,1.595-2.473,3.561-2.473c1.964,0,3.561,1.107,3.561,2.473V82.816z"/>
</g>
<g display="none">
	<defs>
		<rect id="SVGID_18_" y="0.83" width="171.932" height="136.266"/>
	</defs>
	<clipPath id="SVGID_27_" display="inline">
		<use xlink:href="#SVGID_18_"  display="none" overflow="visible"/>
	</clipPath>
	<path clip-path="url(#SVGID_27_)" fill="#5973B5" d="M48.831,82.816c0,1.367-1.596,2.474-3.561,2.474
		c-1.963,0-3.558-1.106-3.558-2.474v-4.939c0-1.365,1.595-2.473,3.558-2.473c1.965,0,3.561,1.107,3.561,2.473V82.816z"/>
</g>
<g display="none">
	<defs>
		<rect id="SVGID_17_" y="0.83" width="171.932" height="136.266"/>
	</defs>
	<clipPath id="SVGID_28_" display="inline">
		<use xlink:href="#SVGID_17_"  display="none" overflow="visible"/>
	</clipPath>
	<path clip-path="url(#SVGID_28_)" fill="#5973B5" d="M117.801,61.678c-2.762,0-4.999-2.236-4.999-4.995
		c0-2.761,2.237-4.995,4.999-4.995c2.758,0,4.997,2.234,4.997,4.995C122.798,59.442,120.559,61.678,117.801,61.678 M114.863,47.484
		c-6.7,0-12.133,5.434-12.133,12.136c0,6.703,5.433,12.138,12.133,12.138c6.699,0,12.136-5.435,12.136-12.138
		C126.999,52.918,121.563,47.484,114.863,47.484"/>
</g>
<g display="none">
	<defs>
		<rect id="SVGID_16_" y="0.83" width="171.932" height="136.266"/>
	</defs>
	<clipPath id="SVGID_29_" display="inline">
		<use xlink:href="#SVGID_16_"  display="none" overflow="visible"/>
	</clipPath>
	<path clip-path="url(#SVGID_29_)" fill="#5973B5" d="M102.359,111.328c0-2.303,1.865-4.166,4.166-4.166
		c2.298,0,4.162,1.863,4.162,4.166c0,2.297-1.864,4.163-4.162,4.163C104.225,115.491,102.359,113.625,102.359,111.328"/>
</g>
<g display="none">
	<defs>
		<rect id="SVGID_15_" y="0.83" width="171.932" height="136.266"/>
	</defs>
	<clipPath id="SVGID_30_" display="inline">
		<use xlink:href="#SVGID_15_"  display="none" overflow="visible"/>
	</clipPath>
	<path clip-path="url(#SVGID_30_)" fill="#5973B5" d="M61.228,111.328c0-2.303,1.865-4.166,4.166-4.166
		c2.298,0,4.162,1.863,4.162,4.166c0,2.297-1.864,4.163-4.162,4.163C63.093,115.491,61.228,113.625,61.228,111.328"/>
</g>
<g display="none">
	<defs>
		<rect id="SVGID_14_" y="0.83" width="171.932" height="136.266"/>
	</defs>
	<clipPath id="SVGID_31_" display="inline">
		<use xlink:href="#SVGID_14_"  display="none" overflow="visible"/>
	</clipPath>
	<path clip-path="url(#SVGID_31_)" fill="#5973B5" d="M31.616,93.699c0-2.303,1.865-4.166,4.166-4.166
		c2.299,0,4.163,1.863,4.163,4.166c0,2.299-1.864,4.162-4.163,4.162C33.481,97.861,31.616,95.998,31.616,93.699"/>
</g>
<g display="none">
	<defs>
		<rect id="SVGID_13_" y="0.83" width="171.932" height="136.266"/>
	</defs>
	<clipPath id="SVGID_32_" display="inline">
		<use xlink:href="#SVGID_13_"  display="none" overflow="visible"/>
	</clipPath>
	<path clip-path="url(#SVGID_32_)" fill="#5973B5" d="M73.301,119.826c2.582,3.347,6.627,5.52,11.19,5.52
		c4.554,0,8.599-2.173,11.188-5.52H73.301z"/>
</g>
<g display="none">
	<defs>
		<rect id="SVGID_12_" x="35.22" width="103.792" height="138.459"/>
	</defs>
	<clipPath id="SVGID_33_" display="inline">
		<use xlink:href="#SVGID_12_"  display="none" overflow="visible"/>
	</clipPath>
	<path clip-path="url(#SVGID_33_)" fill="#5973B5" d="M93.002,80.639c-19.094,0-34.628-15.534-34.628-34.631
		c0-19.094,15.534-34.629,34.628-34.629s34.629,15.535,34.629,34.629C127.631,65.104,112.096,80.639,93.002,80.639 M93.002,0
		c-25.37,0-46.008,20.638-46.008,46.008c0,14.125,6.412,26.775,16.463,35.219l-0.271,0.469l-3.69-2.145l-1.429,2.463l3.692,2.144
		l-1.431,2.464l-3.693-2.141l-1.429,2.461l3.693,2.145l-1.428,2.453l-3.688-2.145l-1.428,2.459l3.691,2.144l-1.433,2.462
		l-3.689-2.141l-1.425,2.455l3.687,2.145l-1.431,2.466l-3.689-2.142l-1.428,2.46l3.691,2.141l-1.424,2.457l-3.692-2.144
		l-1.428,2.461l3.689,2.146l-1.429,2.461l-3.692-2.145l-1.429,2.462l3.691,2.144l-1.426,2.455l-3.691-2.143l-1.427,2.459l3.69,2.141
		l-1.425,2.459l-3.69-2.145l-1.428,2.458l3.689,2.146l-1.23,2.125c-2.368,4.073-0.979,9.297,3.095,11.662
		c1.349,0.784,2.822,1.156,4.278,1.156c2.941,0,5.806-1.523,7.388-4.254l1.226-2.111l3.688,2.148l1.429-2.463l-3.689-2.145
		l1.432-2.464l3.689,2.144l1.428-2.459l-3.689-2.145l1.43-2.466l3.689,2.144l1.428-2.461l-3.689-2.142l1.425-2.454l3.689,2.141
		l1.429-2.461l-3.689-2.142l1.427-2.464l3.694,2.141l1.427-2.461l-3.69-2.141l1.425-2.457l3.691,2.143l1.428-2.46l-3.689-2.141
		l1.428-2.462l3.689,2.141l1.428-2.457l-3.69-2.143l1.431-2.469l3.692,2.144l1.425-2.462l-3.69-2.139l1.426-2.457l3.689,2.145
		l1.431-2.461l-3.688-2.143l0.396-0.688c4.611,1.557,9.53,2.438,14.658,2.438c25.368,0,46.01-20.642,46.01-46.012
		C139.012,20.638,118.371,0,93.002,0"/>
</g>
<g display="none">
	<defs>
		<rect id="SVGID_11_" x="35.22" width="103.792" height="138.459"/>
	</defs>
	<clipPath id="SVGID_34_" display="inline">
		<use xlink:href="#SVGID_11_"  display="none" overflow="visible"/>
	</clipPath>
	<path clip-path="url(#SVGID_34_)" fill="#5973B5" d="M104.555,25.889c-6.359-3.342-14.226-3.506-20.946,0.278
		c-10.538,5.931-14.273,19.282-8.339,29.822c5.929,10.54,19.281,14.275,29.822,8.343c6.973-3.922,10.94-11.096,11.131-18.549
		l-23.012,0.108L104.555,25.889z"/>
</g>
<polygon display="none" fill="#5973B5" points="65.184,48.012 78.79,55.874 80.117,53.579 70.02,47.74 "/>
<polygon display="none" fill="#5973B5" points="106.436,48.138 97.012,53.575 98.336,55.872 111.953,48.014 "/>
<rect x="56.832" y="63.261" transform="matrix(0.866 0.5 -0.5 0.866 40.9615 -23.6912)" display="none" fill="#5973B5" width="15.714" height="2.656"/>
<rect x="66.019" y="52.127" transform="matrix(-0.5007 0.8656 -0.8656 -0.5007 152.9928 31.7261)" display="none" fill="#5973B5" width="2.656" height="15.717"/>
<rect x="60.707" y="61.323" transform="matrix(-0.5005 0.8658 -0.8658 -0.5005 152.9754 50.0983)" display="none" fill="#5973B5" width="2.655" height="15.717"/>
<rect x="51.527" y="72.45" transform="matrix(0.866 0.5001 -0.5001 0.866 44.8523 -19.8091)" display="none" fill="#5973B5" width="15.714" height="2.653"/>
<rect x="62.143" y="54.065" transform="matrix(0.866 0.5 -0.5 0.866 37.0763 -27.5794)" display="none" fill="#5973B5" width="15.713" height="2.655"/>
<rect x="101.932" y="58.659" transform="matrix(-0.866 0.5 -0.5 -0.866 234.8629 57.0435)" display="none" fill="#5973B5" width="15.715" height="2.656"/>
<rect x="112.553" y="77.049" transform="matrix(-0.866 0.5001 -0.5001 -0.866 263.8765 86.0311)" display="none" fill="#5973B5" width="15.713" height="2.652"/>
<rect x="107.238" y="67.852" transform="matrix(-0.866 0.5 -0.5 -0.866 249.3615 71.5433)" display="none" fill="#5973B5" width="15.715" height="2.655"/>
<rect x="111.116" y="56.73" transform="matrix(-0.4996 -0.8663 0.8663 -0.4996 112.6672 194.2626)" display="none" fill="#5973B5" width="2.657" height="15.717"/>
<polygon display="none" fill="#5973B5" points="125.216,70.996 123.891,68.7 110.284,76.563 111.615,78.859 "/>
<rect x="105.813" y="47.539" transform="matrix(-0.5003 -0.8659 0.8659 -0.5003 112.771 175.8803)" display="none" fill="#5973B5" width="2.655" height="15.716"/>
<rect x="84.585" y="93.486" display="none" fill="#5973B5" width="2.656" height="15.716"/>
<rect x="95.204" y="93.486" display="none" fill="#5973B5" width="2.653" height="15.716"/>
<rect x="89.893" y="93.486" display="none" fill="#5973B5" width="2.654" height="15.716"/>
<rect x="100.508" y="93.486" display="none" fill="#5973B5" width="2.656" height="15.716"/>
<rect x="105.816" y="93.486" display="none" fill="#5973B5" width="2.656" height="15.716"/>
<rect x="79.276" y="93.486" display="none" fill="#5973B5" width="2.656" height="15.716"/>
<rect x="73.971" y="93.486" display="none" fill="#5973B5" width="2.652" height="15.716"/>
<rect x="68.665" y="93.486" display="none" fill="#5973B5" width="2.654" height="15.716"/>
<rect x="63.352" y="93.486" display="none" fill="#5973B5" width="2.656" height="15.716"/>
<path display="none" fill="#5973B5" d="M8.171,77.836h51.862v51.863H8.171V77.836z M2.932,134.941h62.34v-62.34H2.932V134.941z"/>
<g display="none">
	<defs>
		<rect id="SVGID_10_" x="4.127" y="4.404" width="167.105" height="131.122"/>
	</defs>
	<clipPath id="SVGID_35_" display="inline">
		<use xlink:href="#SVGID_10_"  display="none" overflow="visible"/>
	</clipPath>
	<path clip-path="url(#SVGID_35_)" fill="#5973B5" d="M40.468,110.238c0,1.217-1.422,2.205-3.171,2.205
		c-1.753,0-3.177-0.988-3.177-2.205v-4.405c0-1.217,1.423-2.205,3.177-2.205c1.749,0,3.171,0.988,3.171,2.205V110.238z"/>
</g>
<g display="none">
	<defs>
		<rect id="SVGID_9_" x="4.127" y="4.404" width="167.105" height="131.122"/>
	</defs>
	<clipPath id="SVGID_36_" display="inline">
		<use xlink:href="#SVGID_9_"  display="none" overflow="visible"/>
	</clipPath>
	<path clip-path="url(#SVGID_36_)" fill="#5973B5" d="M57.391,110.238c0,1.217-1.422,2.205-3.174,2.205s-3.175-0.988-3.175-2.205
		v-4.405c0-1.217,1.422-2.205,3.175-2.205c1.752,0,3.174,0.988,3.174,2.205V110.238z"/>
</g>
<g display="none">
	<defs>
		<rect id="SVGID_8_" x="4.127" y="4.404" width="167.105" height="131.122"/>
	</defs>
	<clipPath id="SVGID_37_" display="inline">
		<use xlink:href="#SVGID_8_"  display="none" overflow="visible"/>
	</clipPath>
	<path clip-path="url(#SVGID_37_)" fill="#5973B5" d="M42.043,119.938c0-2.051,1.664-3.713,3.713-3.713
		c2.047,0,3.71,1.662,3.71,3.713s-1.663,3.713-3.71,3.713C43.707,123.65,42.043,121.988,42.043,119.938"/>
</g>
<g display="none">
	<defs>
		<rect id="SVGID_7_" x="4.127" y="4.404" width="167.105" height="131.122"/>
	</defs>
	<clipPath id="SVGID_38_" display="inline">
		<use xlink:href="#SVGID_7_"  display="none" overflow="visible"/>
	</clipPath>
	<path clip-path="url(#SVGID_38_)" fill="#5973B5" d="M139.838,77.969c-14.426,0-26.16,11.735-26.16,26.158
		c0,14.425,11.734,26.159,26.16,26.159c14.421,0,26.155-11.734,26.155-26.159C165.994,89.704,154.259,77.969,139.838,77.969
		 M139.838,135.523c-17.313,0-31.398-14.084-31.398-31.396s14.086-31.396,31.398-31.396c17.311,0,31.395,14.085,31.395,31.396
		C171.232,121.439,157.148,135.523,139.838,135.523"/>
</g>
<g display="none">
	<defs>
		<rect id="SVGID_6_" x="4.127" y="4.404" width="167.105" height="131.122"/>
	</defs>
	<clipPath id="SVGID_39_" display="inline">
		<use xlink:href="#SVGID_6_"  display="none" overflow="visible"/>
	</clipPath>
	<path clip-path="url(#SVGID_39_)" fill="#5973B5" d="M123.857,101.771c0-4.896,3.972-8.867,8.865-8.867
		c4.898,0,8.866,3.972,8.866,8.867s-3.968,8.865-8.866,8.865C127.829,110.637,123.857,106.668,123.857,101.771"/>
</g>
<g display="none">
	<defs>
		<rect id="SVGID_5_" x="4.127" y="4.404" width="167.105" height="131.122"/>
	</defs>
	<clipPath id="SVGID_40_" display="inline">
		<use xlink:href="#SVGID_5_"  display="none" overflow="visible"/>
	</clipPath>
	<path clip-path="url(#SVGID_40_)" fill="#5973B5" d="M122.982,115.583c2.305,2.987,5.912,4.922,9.977,4.922
		s7.669-1.935,9.975-4.922H122.982z"/>
</g>
<g display="none">
	<defs>
		<rect id="SVGID_4_" x="4.127" y="4.404" width="167.105" height="131.122"/>
	</defs>
	<clipPath id="SVGID_41_" display="inline">
		<use xlink:href="#SVGID_4_"  display="none" overflow="visible"/>
	</clipPath>
	<path clip-path="url(#SVGID_41_)" fill="#5973B5" d="M47.032,46.319l88.01,0.145L113.581,9.642H68.204L47.032,46.319z
		 M139.6,51.711L139.6,51.711l-97.103-0.163c-0.936-0.004-1.8-0.5-2.267-1.313c-0.465-0.807-0.465-1.803,0-2.615L64.424,5.713
		c0.47-0.811,1.336-1.309,2.271-1.309h48.395c0.93,0,1.792,0.497,2.26,1.299l24.516,42.068c0.471,0.811,0.476,1.813,0.005,2.627
		C141.402,51.209,140.536,51.711,139.6,51.711"/>
</g>
<g display="none">
	<defs>
		<rect id="SVGID_3_" x="4.127" y="4.404" width="167.105" height="131.122"/>
	</defs>
	<clipPath id="SVGID_42_" display="inline">
		<use xlink:href="#SVGID_3_"  display="none" overflow="visible"/>
	</clipPath>
	<path clip-path="url(#SVGID_42_)" fill="#5973B5" d="M106.98,24.193c0-2.051,1.664-3.713,3.715-3.713s3.714,1.662,3.714,3.713
		c0,2.049-1.663,3.712-3.714,3.712S106.98,26.242,106.98,24.193"/>
</g>
<g display="none">
	<defs>
		<rect id="SVGID_2_" x="4.127" y="4.404" width="167.105" height="131.122"/>
	</defs>
	<clipPath id="SVGID_43_" display="inline">
		<use xlink:href="#SVGID_2_"  display="none" overflow="visible"/>
	</clipPath>
	<path clip-path="url(#SVGID_43_)" fill="#5973B5" d="M67.693,24.193c0-2.051,1.663-3.713,3.713-3.713
		c2.052,0,3.715,1.662,3.715,3.713c0,2.049-1.663,3.712-3.715,3.712C69.356,27.905,67.693,26.242,67.693,24.193"/>
</g>
<g display="none">
	<defs>
		<rect id="SVGID_1_" x="4.127" y="4.404" width="167.105" height="131.122"/>
	</defs>
	<clipPath id="SVGID_44_" display="inline">
		<use xlink:href="#SVGID_1_"  display="none" overflow="visible"/>
	</clipPath>
	<path clip-path="url(#SVGID_44_)" fill="#5973B5" d="M81.075,31.77c2.306,2.984,5.912,4.922,9.977,4.922
		c4.062,0,7.669-1.938,9.974-4.922H81.075z"/>
</g>
<g>
	<g>
		<path fill="#5973B5" d="M175.187,42.081L109.53,3.813c-0.91-0.533-1.991-0.672-3.007-0.394c-1.021,0.273-1.88,0.946-2.396,1.862
			l-4.178,7.446L84.657,3.813c-0.908-0.533-1.993-0.672-3.009-0.394c-1.016,0.273-1.879,0.946-2.395,1.862l-4.176,7.446
			L59.787,3.813c-0.909-0.533-1.994-0.672-3.009-0.394c-1.017,0.273-1.879,0.946-2.395,1.862L11.003,82.6
			c-1.049,1.875-0.404,4.239,1.448,5.319l65.655,38.264c0.605,0.354,1.289,0.538,1.979,0.538c0.343,0,0.691-0.05,1.029-0.14
			c1.016-0.273,1.88-0.95,2.395-1.867l4.176-7.44l15.295,8.909c0.607,0.354,1.289,0.538,1.976,0.538c0.345,0,0.691-0.05,1.031-0.14
			c1.019-0.273,1.88-0.95,2.396-1.867l4.176-7.44l15.292,8.909c0.607,0.354,1.289,0.538,1.978,0.538c0.346,0,0.694-0.05,1.033-0.14
			c1.015-0.273,1.876-0.95,2.392-1.867l43.383-77.318C177.684,45.526,177.039,43.162,175.187,42.081z M78.612,117.389L19.744,83.077
			l39.538-70.47l58.867,34.311L78.612,117.389z M103.484,117.389l-11.957-6.969l35.363-63.024c1.049-1.87,0.404-4.234-1.45-5.315
			L81.864,16.678l2.288-4.071l58.87,34.311L103.484,117.389z M128.357,117.389L116.4,110.42l35.36-63.024
			c1.053-1.87,0.408-4.234-1.444-5.315l-43.579-25.398l2.288-4.076l58.867,34.311L128.357,117.389z"/>
		<g>
			<path fill="#5973B5" d="M66.622,48.85l17.062,8.461c-0.278,1.049-0.656,2.045-1.129,3.005c-0.503,1.016-1.085,1.952-1.753,2.812
				l-10.964-5.435l-3.666,6.675c0.635,0.154,1.188,0.317,1.655,0.497c0.468,0.17,0.94,0.374,1.419,0.612
				c1.558,0.772,2.863,1.687,3.922,2.742c1.06,1.065,1.831,2.234,2.323,3.53c0.488,1.289,0.677,2.682,0.573,4.175
				c-0.109,1.488-0.563,3.046-1.364,4.669c-0.98,1.971-2.181,3.527-3.604,4.683c-1.424,1.159-3.017,1.937-4.775,2.33
				c-1.759,0.392-3.663,0.392-5.71,0.015c-2.047-0.379-4.185-1.125-6.409-2.225c-0.413-0.205-0.918-0.488-1.516-0.841
				c-0.594-0.353-1.224-0.763-1.881-1.224c-0.662-0.474-1.343-0.996-2.041-1.584c-0.7-0.584-1.352-1.184-1.957-1.801
				c0.584-0.937,1.271-1.803,2.061-2.6c0.791-0.795,1.605-1.563,2.444-2.294c0.923,0.936,1.822,1.757,2.698,2.47
				c0.873,0.71,1.869,1.333,2.981,1.891c1.429,0.711,2.699,1.139,3.811,1.299c1.107,0.154,2.097,0.115,2.963-0.11
				c0.86-0.228,1.59-0.612,2.185-1.174c0.593-0.552,1.07-1.2,1.432-1.93c0.803-1.62,0.902-3.137,0.296-4.544
				c-0.61-1.409-2.09-2.698-4.44-3.869c-0.923-0.452-1.863-0.812-2.822-1.07c-0.962-0.258-1.996-0.387-3.106-0.382l-0.433-0.926
				L66.622,48.85z"/>
		</g>
		<path fill="#5973B5" d="M57.036,31.873c0-3.618,2.93-6.551,6.546-6.551c3.612,0,6.545,2.933,6.545,6.551
			c0,3.613-2.933,6.545-6.545,6.545C59.966,38.418,57.036,35.486,57.036,31.873z"/>
		<circle fill="#5973B5" cx="100.234" cy="52.816" r="6.547"/>
	</g>
</g>
</svg>
