<?xml version="1.0" encoding="utf-8"?>
<!-- Generator: Adobe Illustrator 15.0.0, SVG Export Plug-In  -->
<!DOCTYPE svg PUBLIC "-//W3C//DTD SVG 1.1//EN" "http://www.w3.org/Graphics/SVG/1.1/DTD/svg11.dtd" [
	<!ENTITY ns_flows "http://ns.adobe.com/Flows/1.0/">
]>
<svg version="1.1"
	 xmlns="http://www.w3.org/2000/svg" xmlns:xlink="http://www.w3.org/1999/xlink" xmlns:a="http://ns.adobe.com/AdobeSVGViewerExtensions/3.0/"
	 x="0px" y="0px" width="186px" height="160px" viewBox="-7.068 -10.76 186 160" enable-background="new -7.068 -10.76 186 160"
	 xml:space="preserve">
<defs>
</defs>
<g display="none">
	<defs>
		<rect id="SVGID_4_" x="10.083" y="1.162" width="154.885" height="134.259"/>
	</defs>
	<clipPath id="SVGID_5_" display="inline">
		<use xlink:href="#SVGID_4_"  display="none" overflow="visible"/>
	</clipPath>
	<path clip-path="url(#SVGID_5_)" fill="#5973B5" d="M84.561,130.163H15.339V6.42h69.222V130.163z M87.19,1.162H12.711
		c-1.451,0-2.63,1.177-2.63,2.629v129c0,1.453,1.179,2.629,2.63,2.629H87.19c1.453,0,2.63-1.176,2.63-2.629v-129
		C89.82,2.339,88.643,1.162,87.19,1.162"/>
	<path clip-path="url(#SVGID_5_)" fill="#5973B5" d="M159.71,130.163H99.337V49.31h60.373V130.163z M162.338,44.051H96.708
		c-1.452,0-2.628,1.176-2.628,2.63v86.111c0,1.453,1.176,2.629,2.628,2.629h65.631c1.45,0,2.63-1.176,2.63-2.629V46.681
		C164.968,45.228,163.789,44.051,162.338,44.051"/>
	<path clip-path="url(#SVGID_5_)" fill="#5973B5" d="M34.348,66.314c5.95,0,13.124-0.657,15.602-8.387
		c2.479,7.73,9.654,8.387,15.605,8.387c13.307,0,17.791-19.159,16.087-16.563c-2.584,3.935-9.278,7.834-15.588,4.783
		c-4.246-2.051-13.268-8.303-16.105-5.731c-2.837-2.572-11.859,3.68-16.101,5.731c-6.31,3.052-13.006-0.848-15.588-4.783
		C16.557,47.155,21.038,66.314,34.348,66.314"/>
	<path clip-path="url(#SVGID_5_)" fill="#5973B5" d="M36.219,42.612c2.098,0,3.798-1.703,3.798-3.801
		c0-2.099-1.701-3.798-3.798-3.798s-3.798,1.699-3.798,3.798C32.421,40.909,34.122,42.612,36.219,42.612"/>
	<path clip-path="url(#SVGID_5_)" fill="#5973B5" d="M65.137,42.612c2.098,0,3.8-1.703,3.8-3.801c0-2.099-1.702-3.798-3.8-3.798
		c-2.096,0-3.798,1.699-3.798,3.798C61.338,40.909,63.041,42.612,65.137,42.612"/>
	<path clip-path="url(#SVGID_5_)" fill="#5973B5" d="M113.771,76.977c2.204,0,3.991-1.786,3.991-3.988
		c0-2.208-1.787-3.991-3.991-3.991c-2.201,0-3.99,1.783-3.99,3.991C109.781,75.19,111.57,76.977,113.771,76.977"/>
	<path clip-path="url(#SVGID_5_)" fill="#5973B5" d="M144.004,76.977c2.202,0,3.991-1.786,3.991-3.988
		c0-2.208-1.789-3.991-3.991-3.991c-2.203,0-3.991,1.783-3.991,3.991C140.013,75.19,141.801,76.977,144.004,76.977"/>
	<path clip-path="url(#SVGID_5_)" fill="#5973B5" d="M114.252,63.026c4.79,0,8.692,3.901,8.692,8.694
		c0,4.795-3.902,8.694-8.692,8.694c-4.797,0-8.695-3.899-8.695-8.694C105.557,66.927,109.456,63.026,114.252,63.026 M144.674,63.026
		c4.796,0,8.693,3.901,8.693,8.694c0,4.795-3.897,8.694-8.693,8.694c-4.792,0-8.69-3.899-8.69-8.694
		C135.984,66.927,139.882,63.026,144.674,63.026 M114.252,85.672c6.7,0,12.305-4.751,13.64-11.063h3.142
		c1.336,6.312,6.94,11.063,13.641,11.063c7.697,0,13.952-6.258,13.952-13.951s-6.255-13.953-13.952-13.953
		c-6.878,0-12.576,5.019-13.711,11.583h-3.002c-1.131-6.564-6.827-11.583-13.709-11.583c-7.692,0-13.953,6.259-13.953,13.953
		S106.56,85.672,114.252,85.672"/>
	<path clip-path="url(#SVGID_5_)" fill="#5973B5" d="M46.321,101.836c-0.621,0.604-0.904,1.474-0.758,2.326l1.25,7.272l-6.532-3.433
		c-0.382-0.202-0.803-0.303-1.221-0.303c-0.42,0-0.841,0.101-1.226,0.303l-6.53,3.433l1.248-7.272
		c0.145-0.853-0.136-1.722-0.757-2.326l-5.28-5.147l7.297-1.063c0.857-0.123,1.598-0.662,1.983-1.437l3.265-6.616l3.263,6.616
		c0.384,0.774,1.124,1.313,1.981,1.437l7.298,1.063L46.321,101.836z M57.629,92.25l-11.203-1.627l-5.009-10.155
		c-0.887-1.796-3.833-1.796-4.717,0l-5.009,10.155L20.486,92.25c-0.992,0.144-1.814,0.836-2.125,1.79
		c-0.306,0.949-0.049,1.993,0.665,2.691l8.108,7.906l-1.914,11.159c-0.167,0.986,0.24,1.982,1.045,2.572
		c0.813,0.588,1.887,0.668,2.772,0.198l10.022-5.27l10.021,5.27c0.384,0.203,0.805,0.302,1.222,0.302c0.544,0,1.085-0.169,1.547-0.5
		c0.806-0.59,1.214-1.586,1.046-2.572l-1.914-11.159l8.108-7.906c0.714-0.698,0.972-1.742,0.665-2.691
		C59.443,93.086,58.621,92.394,57.629,92.25"/>
</g>
<g>
	<defs>
		<rect id="SVGID_3_" y="0.83" width="171.932" height="136.266"/>
	</defs>
	<clipPath id="SVGID_6_">
		<use xlink:href="#SVGID_3_"  overflow="visible"/>
	</clipPath>
	<path clip-path="url(#SVGID_6_)" fill="#5973B5" d="M34.482,51.277L11.425,91.525c-0.11,0.189-9.555,16.6-3.586,27.035
		c3.35,5.864,11.173,8.986,23.258,9.286l44.298-76.57H34.482z M32.779,133.746h-0.013c-15.309-0.051-25.417-4.185-30.037-12.288
		c-7.643-13.393,3.148-32.094,3.613-32.88L30.23,46.879c0.523-0.916,1.497-1.479,2.548-1.479H80.49c1.053,0,2.021,0.561,2.542,1.47
		c0.529,0.909,0.526,2.031,0,2.94L35.318,132.28C34.799,133.188,33.827,133.746,32.779,133.746"/>
	<path clip-path="url(#SVGID_6_)" fill="#5973B5" d="M45.03,131.073l82.119,0.138l-19.878-34.12H64.643L45.03,131.073z
		 M132.266,137.096h-0.005l-92.322-0.155c-1.047-0.004-2.012-0.563-2.539-1.473c-0.526-0.906-0.526-2.026,0-2.936l23.002-39.848
		c0.527-0.91,1.497-1.47,2.546-1.47h46.009c1.049,0,2.015,0.558,2.544,1.461l23.303,40.003c0.533,0.909,0.533,2.031,0.012,2.943
		C134.289,136.533,133.315,137.096,132.266,137.096"/>
	<path clip-path="url(#SVGID_6_)" fill="#5973B5" d="M73.449,83.445h42.088c1.04,0,2.007,0.553,2.534,1.452l22.985,39.183
		c11.973-0.302,19.72-3.396,23.046-9.213c5.955-10.415-3.498-26.834-3.594-27L115.717,9.661L94.523,46.382L73.449,83.445z
		 M139.387,129.979c-1.039,0-2.009-0.555-2.531-1.452L113.854,89.32H68.398c-1.046,0-2.016-0.555-2.539-1.459
		c-0.528-0.904-0.534-2.02-0.015-2.93l23.577-41.47l23.761-41.163c0.524-0.909,1.493-1.469,2.543-1.469h0.005
		c1.054,0.002,2.025,0.565,2.547,1.478l47.314,82.616c0.447,0.762,11.249,19.475,3.622,32.842
		c-4.592,8.054-14.625,12.162-29.814,12.214H139.387z"/>
	<path clip-path="url(#SVGID_6_)" fill="#5973B5" d="M29.852,82.816c0,1.367-1.596,2.474-3.561,2.474
		c-1.966,0-3.561-1.106-3.561-2.474v-4.939c0-1.365,1.595-2.473,3.561-2.473c1.964,0,3.561,1.107,3.561,2.473V82.816z"/>
	<path clip-path="url(#SVGID_6_)" fill="#5973B5" d="M48.831,82.816c0,1.367-1.596,2.474-3.561,2.474
		c-1.963,0-3.558-1.106-3.558-2.474v-4.939c0-1.365,1.595-2.473,3.558-2.473c1.965,0,3.561,1.107,3.561,2.473V82.816z"/>
	<path clip-path="url(#SVGID_6_)" fill="#5973B5" d="M117.801,61.678c-2.762,0-4.999-2.236-4.999-4.995
		c0-2.761,2.237-4.995,4.999-4.995c2.758,0,4.997,2.234,4.997,4.995C122.798,59.442,120.559,61.678,117.801,61.678 M114.864,47.484
		c-6.701,0-12.134,5.434-12.134,12.136c0,6.703,5.433,12.138,12.134,12.138c6.699,0,12.135-5.435,12.135-12.138
		C126.999,52.918,121.563,47.484,114.864,47.484"/>
	<path clip-path="url(#SVGID_6_)" fill="#5973B5" d="M102.359,111.328c0-2.302,1.866-4.166,4.166-4.166
		c2.298,0,4.163,1.864,4.163,4.166c0,2.297-1.865,4.163-4.163,4.163C104.225,115.491,102.359,113.625,102.359,111.328"/>
	<path clip-path="url(#SVGID_6_)" fill="#5973B5" d="M61.228,111.328c0-2.302,1.865-4.166,4.166-4.166
		c2.298,0,4.162,1.864,4.162,4.166c0,2.297-1.864,4.163-4.162,4.163C63.093,115.491,61.228,113.625,61.228,111.328"/>
	<path clip-path="url(#SVGID_6_)" fill="#5973B5" d="M31.616,93.699c0-2.302,1.865-4.166,4.166-4.166
		c2.299,0,4.163,1.864,4.163,4.166c0,2.299-1.864,4.163-4.163,4.163C33.481,97.862,31.616,95.998,31.616,93.699"/>
	<path clip-path="url(#SVGID_6_)" fill="#5973B5" d="M73.301,119.826c2.582,3.347,6.627,5.52,11.19,5.52
		c4.554,0,8.599-2.173,11.188-5.52H73.301z"/>
</g>
<g display="none">
	<defs>
		<rect id="SVGID_2_" x="35.22" width="103.792" height="138.459"/>
	</defs>
	<clipPath id="SVGID_7_" display="inline">
		<use xlink:href="#SVGID_2_"  display="none" overflow="visible"/>
	</clipPath>
	<path clip-path="url(#SVGID_7_)" fill="#5973B5" d="M93.002,80.639c-19.094,0-34.628-15.534-34.628-34.631
		c0-19.094,15.534-34.629,34.628-34.629s34.629,15.535,34.629,34.629C127.631,65.104,112.096,80.639,93.002,80.639 M93.002,0
		c-25.37,0-46.008,20.638-46.008,46.008c0,14.125,6.412,26.775,16.463,35.219l-0.271,0.469l-3.69-2.145l-1.429,2.462l3.692,2.144
		l-1.431,2.464l-3.693-2.141l-1.429,2.461l3.693,2.145l-1.428,2.453l-3.688-2.144l-1.428,2.459l3.691,2.143l-1.433,2.462
		l-3.689-2.141l-1.425,2.456l3.687,2.144l-1.431,2.466l-3.689-2.142l-1.428,2.46l3.691,2.141l-1.424,2.457l-3.692-2.144
		l-1.428,2.461l3.689,2.146l-1.429,2.461l-3.692-2.144l-1.429,2.462l3.691,2.144l-1.426,2.455l-3.691-2.143l-1.427,2.459l3.69,2.141
		l-1.425,2.459l-3.69-2.145l-1.428,2.458l3.689,2.146l-1.23,2.124c-2.368,4.074-0.979,9.298,3.095,11.663
		c1.349,0.784,2.822,1.156,4.278,1.156c2.941,0,5.806-1.524,7.388-4.254l1.226-2.111l3.688,2.148l1.429-2.462l-3.689-2.145
		l1.432-2.464l3.689,2.144l1.428-2.46l-3.689-2.144l1.43-2.466l3.689,2.143l1.428-2.461l-3.689-2.141l1.425-2.454l3.689,2.141
		l1.429-2.462l-3.689-2.141l1.427-2.464l3.694,2.141l1.427-2.461l-3.69-2.141l1.425-2.457l3.691,2.143l1.428-2.46l-3.689-2.141
		l1.428-2.462l3.689,2.141l1.428-2.457l-3.69-2.143l1.431-2.468l3.692,2.143l1.425-2.462l-3.69-2.138l1.426-2.457l3.689,2.144
		l1.431-2.461l-3.688-2.142l0.396-0.688c4.611,1.556,9.53,2.437,14.658,2.437c25.368,0,46.009-20.641,46.009-46.011
		C139.011,20.638,118.371,0,93.002,0"/>
	<path clip-path="url(#SVGID_7_)" fill="#5973B5" d="M104.554,25.889c-6.358-3.342-14.225-3.506-20.945,0.278
		c-10.538,5.931-14.273,19.282-8.339,29.822c5.929,10.54,19.281,14.275,29.822,8.343c6.972-3.922,10.94-11.096,11.13-18.549
		l-23.011,0.108L104.554,25.889z"/>
</g>
<polygon display="none" fill="#5973B5" points="65.184,48.012 78.79,55.874 80.117,53.579 70.02,47.74 "/>
<polygon display="none" fill="#5973B5" points="106.435,48.138 97.012,53.575 98.336,55.872 111.953,48.014 "/>
<rect x="56.834" y="63.257" transform="matrix(-0.866 -0.5 0.5 -0.866 88.4183 152.8648)" display="none" fill="#5973B5" width="15.714" height="2.656"/>
<rect x="66.017" y="52.13" transform="matrix(0.5008 -0.8656 0.8656 0.5008 -18.3057 88.2371)" display="none" fill="#5973B5" width="2.656" height="15.717"/>
<rect x="60.71" y="61.323" transform="matrix(0.5005 -0.8657 0.8657 0.5005 -28.906 88.2618)" display="none" fill="#5973B5" width="2.655" height="15.718"/>
<rect x="51.526" y="72.452" transform="matrix(-0.866 -0.5001 0.5001 -0.866 73.9132 167.3661)" display="none" fill="#5973B5" width="15.714" height="2.653"/>
<rect x="62.141" y="54.065" transform="matrix(-0.866 -0.5 0.5 -0.866 102.9219 138.3615)" display="none" fill="#5973B5" width="15.714" height="2.655"/>
<rect x="101.934" y="58.661" transform="matrix(0.866 -0.5 0.5 0.866 -15.2852 62.9328)" display="none" fill="#5973B5" width="15.715" height="2.656"/>
<rect x="112.55" y="77.049" transform="matrix(0.866 -0.5001 0.5001 0.866 -23.0569 70.7169)" display="none" fill="#5973B5" width="15.712" height="2.652"/>
<rect x="107.241" y="67.854" transform="matrix(0.866 -0.5 0.5 0.866 -19.1706 66.818)" display="none" fill="#5973B5" width="15.715" height="2.655"/>
<rect x="111.115" y="56.727" transform="matrix(0.4994 0.8664 -0.8664 0.4994 112.2465 -65.0858)" display="none" fill="#5973B5" width="2.656" height="15.717"/>
<polygon display="none" fill="#5973B5" points="125.216,70.996 123.891,68.7 110.284,76.563 111.615,78.859 "/>
<rect x="105.809" y="47.534" transform="matrix(0.5003 0.8659 -0.8659 0.5003 101.5036 -65.0851)" display="none" fill="#5973B5" width="2.655" height="15.715"/>
<rect x="84.585" y="93.487" display="none" fill="#5973B5" width="2.656" height="15.715"/>
<rect x="95.204" y="93.487" display="none" fill="#5973B5" width="2.654" height="15.715"/>
<rect x="89.893" y="93.487" display="none" fill="#5973B5" width="2.654" height="15.715"/>
<rect x="100.508" y="93.487" display="none" fill="#5973B5" width="2.656" height="15.715"/>
<rect x="105.816" y="93.487" display="none" fill="#5973B5" width="2.656" height="15.715"/>
<rect x="79.276" y="93.487" display="none" fill="#5973B5" width="2.656" height="15.715"/>
<rect x="73.971" y="93.487" display="none" fill="#5973B5" width="2.652" height="15.715"/>
<rect x="68.665" y="93.487" display="none" fill="#5973B5" width="2.654" height="15.715"/>
<rect x="63.352" y="93.487" display="none" fill="#5973B5" width="2.656" height="15.715"/>
<path display="none" fill="#5973B5" d="M8.171,77.836h51.862v51.863H8.171V77.836z M2.932,134.941h62.34V72.601H2.932V134.941z"/>
<g display="none">
	<defs>
		<rect id="SVGID_1_" x="4.127" y="4.404" width="167.106" height="131.121"/>
	</defs>
	<clipPath id="SVGID_8_" display="inline">
		<use xlink:href="#SVGID_1_"  display="none" overflow="visible"/>
	</clipPath>
	<path clip-path="url(#SVGID_8_)" fill="#5973B5" d="M40.468,110.238c0,1.217-1.422,2.205-3.171,2.205
		c-1.753,0-3.177-0.988-3.177-2.205v-4.405c0-1.217,1.423-2.205,3.177-2.205c1.749,0,3.171,0.988,3.171,2.205V110.238z"/>
	<path clip-path="url(#SVGID_8_)" fill="#5973B5" d="M57.391,110.238c0,1.217-1.422,2.205-3.174,2.205
		c-1.752,0-3.175-0.988-3.175-2.205v-4.405c0-1.217,1.422-2.205,3.175-2.205c1.752,0,3.174,0.988,3.174,2.205V110.238z"/>
	<path clip-path="url(#SVGID_8_)" fill="#5973B5" d="M42.043,119.938c0-2.051,1.664-3.713,3.713-3.713
		c2.047,0,3.71,1.662,3.71,3.713c0,2.05-1.663,3.713-3.71,3.713C43.707,123.651,42.043,121.988,42.043,119.938"/>
	<path clip-path="url(#SVGID_8_)" fill="#5973B5" d="M139.838,77.969c-14.426,0-26.16,11.735-26.16,26.158
		c0,14.425,11.734,26.159,26.16,26.159c14.421,0,26.155-11.734,26.155-26.159C165.994,89.704,154.259,77.969,139.838,77.969
		 M139.838,135.524c-17.313,0-31.398-14.085-31.398-31.397c0-17.312,14.086-31.396,31.398-31.396
		c17.311,0,31.394,14.085,31.394,31.396C171.232,121.439,157.149,135.524,139.838,135.524"/>
	<path clip-path="url(#SVGID_8_)" fill="#5973B5" d="M123.857,101.771c0-4.896,3.972-8.866,8.866-8.866
		c4.898,0,8.866,3.971,8.866,8.866c0,4.896-3.968,8.865-8.866,8.865C127.829,110.637,123.857,106.668,123.857,101.771"/>
	<path clip-path="url(#SVGID_8_)" fill="#5973B5" d="M122.983,115.583c2.304,2.987,5.912,4.922,9.976,4.922s7.669-1.935,9.974-4.922
		H122.983z"/>
	<path clip-path="url(#SVGID_8_)" fill="#5973B5" d="M47.032,46.319l88.01,0.145L113.581,9.642H68.204L47.032,46.319z M139.6,51.711
		L139.6,51.711l-97.103-0.163c-0.936-0.004-1.8-0.5-2.267-1.313c-0.465-0.807-0.465-1.803,0-2.615L64.424,5.713
		c0.47-0.811,1.336-1.309,2.271-1.309h48.395c0.93,0,1.792,0.497,2.26,1.299l24.515,42.068c0.471,0.811,0.476,1.813,0.005,2.627
		C141.402,51.209,140.536,51.711,139.6,51.711"/>
	<path clip-path="url(#SVGID_8_)" fill="#5973B5" d="M106.98,24.193c0-2.051,1.665-3.713,3.715-3.713
		c2.051,0,3.714,1.662,3.714,3.713c0,2.049-1.663,3.712-3.714,3.712C108.645,27.905,106.98,26.242,106.98,24.193"/>
	<path clip-path="url(#SVGID_8_)" fill="#5973B5" d="M67.693,24.193c0-2.051,1.663-3.713,3.713-3.713
		c2.052,0,3.715,1.662,3.715,3.713c0,2.049-1.663,3.712-3.715,3.712C69.356,27.905,67.693,26.242,67.693,24.193"/>
	<path clip-path="url(#SVGID_8_)" fill="#5973B5" d="M81.075,31.77c2.306,2.984,5.912,4.922,9.977,4.922
		c4.062,0,7.669-1.938,9.974-4.922H81.075z"/>
</g>
</svg>
