<?xml version="1.0" encoding="utf-8"?>
<!-- Generator: Adobe Illustrator 15.0.0, SVG Export Plug-In  -->
<!DOCTYPE svg PUBLIC "-//W3C//DTD SVG 1.1//EN" "http://www.w3.org/Graphics/SVG/1.1/DTD/svg11.dtd" [
	<!ENTITY ns_flows "http://ns.adobe.com/Flows/1.0/">
]>
<svg version="1.1"
	 xmlns="http://www.w3.org/2000/svg" xmlns:xlink="http://www.w3.org/1999/xlink" xmlns:a="http://ns.adobe.com/AdobeSVGViewerExtensions/3.0/"
	 x="0px" y="0px" width="186px" height="186px" viewBox="-1 -1 186 186" enable-background="new -1 -1 186 186"
	 xml:space="preserve">
<defs>
</defs>
<g>
	<defs>
		<rect id="SVGID_1_" width="184" height="184"/>
	</defs>
	<clipPath id="SVGID_2_">
		<use xlink:href="#SVGID_1_"  overflow="visible"/>
	</clipPath>
	<path clip-path="url(#SVGID_2_)" fill="#1BA892" d="M92,184c50.812,0,92-41.19,92-92.002S142.812,0,92,0
		C41.187,0,0,41.187,0,91.998S41.187,184,92,184"/>
	<path clip-path="url(#SVGID_2_)" fill="#FFFFFF" d="M110.983,80.291l-8.552,8.339l2.026,11.771c0.024,0.166,0.024,0.31,0.024,0.474
		c0,0.61-0.281,1.178-0.967,1.178c-0.325,0-0.658-0.118-0.942-0.284L92,96.211l-10.576,5.558c-0.305,0.166-0.613,0.284-0.943,0.284
		c-0.682,0-0.987-0.567-0.987-1.178c0-0.164,0.022-0.308,0.05-0.474l2.025-11.771l-8.575-8.339
		c-0.282-0.306-0.589-0.705-0.589-1.132c0-0.705,0.729-0.985,1.319-1.078l11.823-1.723l5.295-10.716
		c0.214-0.449,0.617-0.967,1.158-0.967c0.542,0,0.945,0.518,1.154,0.967l5.301,10.716l11.819,1.723
		c0.566,0.093,1.319,0.374,1.319,1.078C111.594,79.585,111.288,79.985,110.983,80.291"/>
	<path clip-path="url(#SVGID_2_)" fill="#FFFFFF" d="M97.878,124.315c0-0.553-0.428-0.976-0.982-0.976h-9.79
		c-0.55,0-0.984,0.423-0.984,0.976c0,0.556,0.435,0.986,0.984,0.986h9.79C97.45,125.302,97.878,124.871,97.878,124.315
		 M56.747,105.712c0,1.038,0.919,1.955,1.956,1.955h66.591c1.042,0,1.963-0.917,1.963-1.955V62.627c0-1.046-0.921-1.966-1.963-1.966
		H58.703c-1.037,0-1.956,0.92-1.956,1.966V105.712z M48.91,105.712V62.627c0-5.395,4.407-9.801,9.793-9.801h66.591
		c5.391,0,9.795,4.406,9.795,9.801v43.085c0,5.383-4.404,9.789-9.795,9.789H58.703C53.317,115.501,48.91,111.095,48.91,105.712
		 M150.758,119.42v5.882c0,3.238-4.408,5.872-9.793,5.872h-97.93c-5.383,0-9.791-2.634-9.791-5.872v-5.882h9.791h97.93H150.758z"/>
</g>
</svg>
