<?xml version="1.0" encoding="utf-8"?>
<!-- Generator: Adobe Illustrator 15.0.0, SVG Export Plug-In  -->
<!DOCTYPE svg PUBLIC "-//W3C//DTD SVG 1.1//EN" "http://www.w3.org/Graphics/SVG/1.1/DTD/svg11.dtd" [
	<!ENTITY ns_flows "http://ns.adobe.com/Flows/1.0/">
]>
<svg version="1.1"
	 xmlns="http://www.w3.org/2000/svg" xmlns:xlink="http://www.w3.org/1999/xlink" xmlns:a="http://ns.adobe.com/AdobeSVGViewerExtensions/3.0/"
	 x="0px" y="0px" width="186px" height="186px" viewBox="-0.956 -1.002 186 186" enable-background="new -0.956 -1.002 186 186"
	 xml:space="preserve">
<defs>
</defs>
<g>
	<defs>
		<rect id="SVGID_1_" width="184" height="183.998"/>
	</defs>
	<clipPath id="SVGID_2_">
		<use xlink:href="#SVGID_1_"  overflow="visible"/>
	</clipPath>
	<path clip-path="url(#SVGID_2_)" fill="#1BA892" d="M91.999,183.998c50.811,0,92.001-41.189,92.001-92
		C184,41.188,142.81,0,91.999,0C41.19,0,0,41.188,0,91.998C0,142.809,41.19,183.998,91.999,183.998"/>
	<path clip-path="url(#SVGID_2_)" fill="#FFFFFF" d="M105.816,71.278c-1.223,0-2.307-1.08-2.307-2.308
		c0-4.963-7.698-6.903-11.511-6.903c-1.224,0-2.303-1.081-2.303-2.309c0-1.217,1.079-2.299,2.303-2.299
		c6.693,0,16.117,3.526,16.117,11.511C108.116,70.198,107.038,71.278,105.816,71.278 M91.999,45.942
		c-13.023,0-27.635,8.632-27.635,23.028c0,4.606,1.868,9.43,4.895,12.956c1.368,1.585,2.954,3.096,4.39,4.751
		c5.109,6.118,9.427,13.315,10.145,21.446h16.409c0.719-8.131,5.035-15.328,10.142-21.446c1.441-1.655,3.023-3.166,4.396-4.751
		c3.025-3.526,4.892-8.35,4.892-12.956C119.632,54.574,105.024,45.942,91.999,45.942 M121.433,88.263
		c-4.967,5.464-11.516,13.167-12.091,20.868c2.089,1.217,3.382,3.521,3.382,5.895c0,1.73-0.645,3.389-1.801,4.607
		c1.156,1.227,1.801,2.887,1.801,4.605c0,2.381-1.222,4.531-3.234,5.832c0.575,1.008,0.931,2.221,0.931,3.377
		c0,4.678-3.67,6.912-7.845,6.912c-1.87,4.18-6.047,6.906-10.576,6.906c-4.533,0-8.708-2.727-10.575-6.906
		c-4.178,0-7.848-2.234-7.848-6.912c0-1.156,0.357-2.369,0.934-3.377c-2.014-1.301-3.236-3.451-3.236-5.832
		c0-1.719,0.646-3.379,1.799-4.605c-1.152-1.219-1.799-2.877-1.799-4.607c0-2.373,1.294-4.678,3.384-5.895
		c-0.579-7.701-7.125-15.404-12.092-20.868c-4.969-5.479-7.415-11.875-7.415-19.292c0-19.578,18.642-32.242,36.847-32.242
		c18.207,0,36.845,12.664,36.845,32.242C128.844,76.387,126.401,82.784,121.433,88.263"/>
</g>
</svg>
